<?xml version="1.0" encoding="UTF-8"?>
<svg width="120px" height="80px" viewBox="0 0 120 80" version="1.1" xmlns="http://www.w3.org/2000/svg" xmlns:xlink="http://www.w3.org/1999/xlink">
    <!-- Generator: Sketch 53.2 (72643) - https://sketchapp.com -->
    <title>assets/icon_checked</title>
    <desc>Created with Sketch.</desc>
    <g id="assets/icon_checked" stroke="none" stroke-width="1" fill="none" fill-rule="evenodd">
        <path d="M104.198808,80 L24.7488711,80 C18.5984435,71.726835 14.9800084,61.4790737 15.0001333,50.4280667 C15.0499667,22.9807333 37.2973,1.00223333 64.5063,1.00006667 C91.8819667,1.09623333 113.962967,23.1860667 113.952967,50.4899 C113.948789,61.5552458 110.323761,71.7648389 104.198808,80 Z M40.4609667,45.9407333 C37.9176333,48.4820667 35.3673,51.0304 32.7848,53.6109 C32.8498,53.6642333 32.9539667,53.7360667 33.0423,53.8242333 C40.0264667,60.8062333 47.0094667,67.7895667 53.9924667,74.7729 C54.4544667,75.2350667 54.5194667,75.2364 54.9721333,74.7835667 C68.6009667,61.1475667 82.2299667,47.5115667 95.8608,33.8775667 C95.9678,33.7705667 96.1029667,33.6919 96.1959667,33.6219 C93.5899667,31.0164 91.0428,28.4692333 88.4406333,25.8675667 C77.1244667,37.1855667 65.7836333,48.5280667 54.4653,59.8480667 C49.7993,55.2145667 45.1184667,50.5660667 40.4609667,45.9407333 Z" id="Combined-Shape" fill="#41DAE8"></path>
    </g>
</svg>