<?xml version="1.0" encoding="UTF-8"?>
<svg width="120px" height="80px" viewBox="0 0 120 80" version="1.1" xmlns="http://www.w3.org/2000/svg" xmlns:xlink="http://www.w3.org/1999/xlink">
    <!-- Generator: Sketch 53.2 (72643) - https://sketchapp.com -->
    <title>assets/icon_hygiene</title>
    <desc>Created with Sketch.</desc>
    <g id="assets/icon_hygiene" stroke="none" stroke-width="1" fill="none" fill-rule="evenodd">
        <path d="M48.5720633,80 L3.43849573,80 C6.05239823,71.9329352 8.677934,63.8694931 11.2940339,55.8029851 C12.3111731,52.6672025 14.1846232,50.2189615 17.0907371,48.6294422 C19.8231949,47.1350802 22.7213658,46.7511866 25.7499996,47.5196708 C26.4758732,47.7038986 27.1939901,47.9238882 27.9067844,48.154909 C34.4006117,50.2600478 40.8922186,52.3714256 47.3846253,54.4809364 L47.8280279,54.6250066 C43.6381571,63.341558 43.6138761,71.9267613 48.5720698,80.0000001 Z M85.4018156,80 L56.4993122,80 C51.0889889,74.2542062 49.4263607,65.5749817 52.9751011,58.0018824 C57.6407415,48.0450453 69.4185694,43.762465 79.3495789,48.4112052 C89.2766833,53.058327 93.5724344,64.8910623 88.9315802,74.8047381 C88.013962,76.7649269 86.8136973,78.5052464 85.4018156,80 Z M60.1321461,60.9904831 C60.0674847,61.1291498 59.9963444,61.2652007 59.9392381,61.4067825 C59.5051192,62.4841707 59.5824833,63.5195807 60.3182245,64.4287021 C61.0635746,65.3498027 62.0548523,65.753068 63.2485584,65.5584281 C64.3911368,65.3717651 65.0964932,64.6559469 65.612572,63.659134 C66.8499213,61.2689206 69.5864826,59.9614436 72.1664388,60.5321863 C72.8635795,60.6864228 73.5205378,61.0215457 74.2174791,61.1775133 C75.6468172,61.497267 76.8602599,60.7928088 77.4311802,59.3838153 C77.9799455,58.0301539 77.5359929,56.4800832 76.3532765,55.7435416 C75.1372988,54.9862207 73.7706408,54.6180749 72.3738085,54.4423729 C67.194766,53.7907224 62.3244823,56.5088462 60.1321461,60.9904831 Z M77.1943985,13.101591 C77.1868107,11.3832879 75.9207408,10.0372249 74.2167495,10.0238108 C71.8827944,10.0055528 69.8037515,10.8111413 68.034361,12.3591604 C65.8001306,14.3140725 64.633424,16.8375914 64.4514988,19.8628332 C64.3212424,22.0319975 66.3106776,23.7042829 68.3118558,23.0412188 C69.547394,22.6317175 70.2268588,21.7273867 70.4338959,20.4094559 C70.5412083,19.7266433 70.5957678,18.9965088 70.8788631,18.3891503 C71.5774779,16.8899434 72.8594459,16.2443921 74.4322776,16.1834699 C75.9250767,16.125715 77.2305306,14.8116966 77.1943985,13.101591 Z M90.8413241,19.9967874 C90.8429501,29.4207193 83.384736,37.1045503 74.2223499,37.1187096 C65.0847144,37.1326825 57.5536941,29.3264483 57.5769993,19.8442025 C57.6006659,10.1767683 65.4910202,2.52032434 74.7375941,2.83648614 C83.4355016,3.13420362 90.8095278,10.5346627 90.8413241,19.9967874 Z M96.9031444,37.8446312 C96.8639505,37.8381216 96.8248458,37.8318564 96.7858187,37.8254245 C96.6872317,38.4191172 96.486293,39.0172214 96.5105417,39.6061137 C96.5701274,41.0452998 97.5372072,42.0600459 99.0063704,42.3716352 C100.264664,42.6386562 101.628781,41.9690517 102.275521,40.7667195 C102.988876,39.4402514 104.109311,39.0668231 105.523503,39.6112416 C105.966085,39.7815091 106.48541,39.8903859 106.949238,39.8405004 C108.145983,39.7118201 108.992755,39.0318449 109.377911,37.8858617 C109.77372,36.7083281 109.576493,35.6169977 108.679329,34.7078891 C108.005378,34.0249967 107.118294,33.7848008 106.225855,33.5473823 C102.599537,32.5822889 98.5382455,34.44917 96.9031444,37.8446312 Z M91.0485821,35.6875228 C93.9674487,28.7757792 102.291853,24.9884349 109.886112,28.0973696 C117.550887,31.2353321 121.241237,39.9693533 117.610038,47.9019038 C114.455075,54.7944418 106.360521,58.2943752 98.7607798,55.1419033 C90.8513002,51.8608223 87.7392293,43.006937 91.0485821,35.6875228 Z" id="Combined-Shape" fill="#41DAE8"></path>
    </g>
</svg>