<?xml version="1.0" encoding="UTF-8"?>
<svg width="24px" height="24px" viewBox="0 0 24 24" version="1.1" xmlns="http://www.w3.org/2000/svg" xmlns:xlink="http://www.w3.org/1999/xlink">
    <!-- Generator: Sketch 59.1 (86144) - https://sketch.com -->
    <title>icon_camera</title>
    <desc>Created with Sketch.</desc>
    <g id="icon_camera" stroke="none" stroke-width="1" fill="none" fill-rule="evenodd">
        <path d="M11.9994379,9.27788359 C10.1124472,9.27503523 8.58113505,10.8054577 8.57759635,12.6977866 C8.5740958,14.5793343 10.1095949,16.1162203 11.993707,16.1169271 C13.8706491,16.1176334 15.4094453,14.5828408 15.4137198,12.7058464 C15.4180023,10.8177829 13.8870827,9.28073991 11.9994379,9.27788359 M11.993864,17.3607549 C10.3387238,17.3607549 8.68358365,17.3613567 7.02846963,17.3604147 C6.56793505,17.3601268 6.14568458,17.2360633 5.77951262,16.9496521 C5.35930328,16.6210315 5.10201729,16.1937829 5.02594627,15.66351 C5.00807337,15.5388969 5.0012958,15.4116932 5.00119113,15.285667 C4.9996472,13.5453231 5,11.804953 5.00030141,10.0645829 C5.00040608,9.5224558 5.17343038,9.04569692 5.55077617,8.65160346 C5.90464907,8.2820558 6.33775935,8.06726701 6.85073505,8.0457829 C7.26654814,8.02835486 7.68343412,8.03568196 8.09984907,8.03468757 C8.29145281,8.03424271 8.47183038,7.99376047 8.63831262,7.89858664 C8.88848085,7.75557729 9.03771823,7.53534551 9.11831636,7.26351 C9.16790514,7.09637355 9.21388271,6.9280072 9.26904533,6.76272869 C9.42089954,6.30776794 9.82671636,6.00508009 10.3055949,6.00324832 C11.4330005,5.99895673 12.5604322,5.99890439 13.6878379,6.00316981 C14.176922,6.00502776 14.5844136,6.32305019 14.735221,6.80245206 C14.7979463,7.00190626 14.846593,7.2070128 14.9248098,7.4001343 C15.0827351,7.78996234 15.3841407,8.00736794 15.8019949,8.02756981 C16.1914565,8.04638477 16.5824883,8.0329343 16.9728136,8.03419037 C17.4832248,8.03586514 17.938421,8.19216794 18.3198752,8.53518103 C18.7637407,8.93429879 18.9874528,9.43712122 18.9879762,10.0345941 C18.9894939,11.8098464 18.9911687,13.5850988 18.9872173,15.3603773 C18.9856995,16.0596969 18.6888995,16.6142278 18.1190079,17.0167474 C17.7754453,17.2594053 17.383707,17.3602053 16.9658266,17.3604147 C15.3085145,17.3612521 13.6511762,17.3607549 11.993864,17.3607549" id="Fill-1" fill="#FFFFFF"></path>
        <path d="M14,12.7527462 C13.9969591,13.8511187 13.0955164,14.7567478 11.9986617,14.75 C10.8755177,14.743008 9.99805322,13.8519368 10,12.7472839 C10.0019773,11.6283377 10.8924902,10.7574553 11.9978673,10.7500439 C13.0938312,10.7427047 14.0030258,11.6565393 14,12.7527462" id="Fill-4" fill="#FFFFFF"></path>
    </g>
</svg>