<?xml version="1.0" encoding="UTF-8"?>
<svg width="120px" height="80px" viewBox="0 0 120 80" version="1.1" xmlns="http://www.w3.org/2000/svg" xmlns:xlink="http://www.w3.org/1999/xlink">
    <!-- Generator: Sketch 53.2 (72643) - https://sketchapp.com -->
    <title>assets/icon_behavior</title>
    <desc>Created with Sketch.</desc>
    <g id="assets/icon_behavior" stroke="none" stroke-width="1" fill="none" fill-rule="evenodd">
        <path d="M20.6263259,80 C20.1606721,79.765367 19.7250334,79.4665367 19.2890372,79.1771542 C17.6628591,78.0988869 17.3078822,76.0462379 18.4913945,74.5015377 C19.5971956,73.0580447 20.7158526,71.6241175 21.8437199,70.1978431 C22.9193959,68.8379559 24.3579159,68.5446657 25.9445669,69.2515851 C27.0346339,69.7373411 28.1600067,70.1486744 29.2851876,70.5506332 C29.5847114,70.6577712 29.9536955,70.6765203 30.2681859,70.6168291 C31.0357036,70.4710449 31.5562725,69.8067894 31.5737335,69.0533798 C31.5915783,68.2865779 31.0917324,67.6728303 30.2369096,67.4057506 C25.233078,65.8413447 21.479149,62.8541081 19.3911171,57.9577108 C18.9908566,57.0191056 18.0612008,56.6418268 17.1881494,57.0120268 C16.323157,57.3789744 15.963575,58.3267629 16.3532821,59.260394 C17.0695679,60.9763236 18.0059395,62.563305 19.1825441,64.0077546 C19.3834419,64.2543633 19.6102434,64.4894929 19.7624038,64.7644167 C20.4023216,65.9207416 20.0889825,66.9831296 19.3715454,67.9764517 C18.9141048,68.6097138 18.3551601,69.178693 17.9602722,69.8463922 C17.3756156,70.8355054 16.5380619,71.1844691 15.4357147,71.2240719 C13.0579449,71.309591 10.8994932,70.7719879 9.25182462,68.9808704 C7.10584515,66.6483234 5.55987264,63.9559075 4.74189066,60.8737772 C4.22343246,58.9194656 4.09967024,56.9177071 4.00718435,54.911357 C3.9060639,52.7167502 4.87524686,51.0440584 6.73475035,50.0044373 C10.9484225,47.6487408 15.365103,47.3692254 19.9034351,49.0218289 C21.6245936,49.6485861 23.2164253,50.5206128 24.7132766,51.5667387 C25.2146576,51.9170416 25.7450123,52.0743049 26.3381116,51.8843263 C26.954812,51.6865036 27.3310876,51.2453247 27.4446802,50.6176109 C27.565948,49.9479985 27.3502755,49.3606528 26.7784749,48.9896875 C25.641973,48.2523486 24.5087332,47.4995129 23.3162026,46.8605113 C19.1426332,44.6243885 14.7787195,43.9304787 10.1795616,45.3936775 C9.03596027,45.757564 8.99700875,45.7311622 8.59022437,44.601813 C8.57947912,44.5719674 8.5731471,44.5404 8.56297749,44.5103631 C8.05622394,43.030711 8.03722787,41.5122213 8.17979428,39.9761305 C8.46320019,36.9150452 9.86507125,34.4983183 12.4055548,32.7682312 C13.5714142,31.9740708 14.8832938,31.6821198 16.2868918,32.0033425 C16.4703285,32.0452411 16.6898386,32.1659626 16.7853945,32.3174863 C18.6677317,35.3028098 21.3672833,37.3830086 24.356189,39.14275 C25.2399856,39.6631345 26.2227921,39.438336 26.6992287,38.6374796 C27.1869862,37.817874 26.934281,36.8762076 26.0719748,36.3261689 C25.5740477,36.0085813 25.0638403,35.7105081 24.5687914,35.3887115 C22.890614,34.2978172 21.2807456,33.1302045 20.0225923,31.5399707 C18.366481,29.446571 17.9046272,27.1668277 18.8525115,24.6387538 C19.1984701,23.715454 19.7485884,22.9277985 20.3643295,22.164249 C21.8362366,20.3390769 23.4704736,18.6981438 25.4452966,17.4077051 C28.127771,15.6548511 31.0909649,14.582706 34.1898176,13.8822914 C36.757548,13.3018331 39.2339438,13.6431441 41.5647032,14.9131119 C41.9162263,15.104621 42.0311621,15.2993826 41.8918576,15.7097593 C41.6876979,16.3099233 41.5351538,16.9332368 41.4238637,17.5580809 C41.1458304,19.1180865 41.2126044,20.6689088 41.6794471,22.1900769 C41.9121968,22.9476955 42.607376,23.4389997 43.334599,23.3959532 C44.1289798,23.3490803 44.803436,22.7640304 44.8947706,21.9654698 C44.9314195,21.6461603 44.8533246,21.3014056 44.7700489,20.9830527 C44.4672632,19.827493 44.297258,18.6566279 44.6056083,17.4893978 C45.3660264,14.6114036 47.179287,12.5962529 49.8608019,11.3500086 C52.1859968,10.2692541 54.6911745,9.97845102 57.2026843,10.0012178 C60.4425683,10.0306808 63.6870575,10.1705341 66.9181151,10.4156123 C71.544328,10.7662979 76.0193399,11.8728802 80.3734677,13.4606269 C81.7701581,13.9701063 82.6510765,14.9674461 82.7667798,16.4558989 C82.8243436,17.1964902 82.7188099,17.9952421 82.4883627,18.7033094 C81.9177133,20.4569287 81.2271393,22.1719017 80.5947047,23.9058152 C80.2236099,24.9236261 80.724799,25.8939901 81.7350441,26.1480602 C82.538827,26.3500918 83.3286027,25.9261315 83.6843472,25.0659666 C84.3229219,23.5210751 84.9407736,21.9675743 85.5716732,20.4196217 C85.9682879,19.4465792 86.6945516,18.8483283 87.7153501,18.6231473 C89.0573548,18.3269873 90.2859587,18.7327724 91.4497074,19.3340843 C93.6411623,20.4666859 95.5250345,22.0150211 97.2400528,23.7692143 C98.2073169,24.7583275 99.0228045,25.8557266 99.3729844,27.2288146 C99.6763458,28.4184289 99.3090886,29.6225834 98.531785,30.2284869 C97.0846304,31.3566882 95.6512911,32.5030646 94.2321509,33.6660857 C93.7649245,34.0489127 93.3368415,34.4864566 92.9306328,34.9347143 C92.2751727,35.6588523 92.3076003,36.6802982 92.9690087,37.3009332 C93.6457674,37.9359171 94.6201311,37.892488 95.3318119,37.192456 C95.6731654,36.8565019 96.0033899,36.5088774 96.3491566,36.1777062 C97.9912607,34.6062216 99.6997551,33.1198733 101.797189,32.1669192 C104.481198,30.947268 106.654809,31.371037 108.512009,33.6482932 C109.60553,34.9890485 110.626137,36.4245062 111.450067,37.941274 C113.846257,42.3524893 114.351092,47.1214688 113.793682,52.0369979 C113.390736,55.5899614 111.460812,58.231104 108.687195,60.3495664 C108.277341,60.6625623 107.944046,60.6916427 107.49927,60.3507143 C106.590337,59.6535521 105.54114,59.2274873 104.412506,58.9988625 C102.351337,58.5810243 100.340632,58.9018643 98.3485402,59.419953 C97.3672688,59.675171 96.8779763,60.5380144 97.1239657,61.476811 C97.3469296,62.3276014 98.2174865,62.8129748 99.1624927,62.6195524 C99.8651551,62.4758728 100.56398,62.2931642 101.273934,62.2108976 C102.469918,62.0721921 103.672043,62.0433031 104.810272,62.5439819 C105.550926,62.8697962 105.67795,63.1493115 105.518307,63.925488 C105.212259,65.4122188 104.398307,66.5784923 103.243192,67.5320204 C101.754592,68.7608549 99.9635893,69.3426524 98.159539,69.9003439 C95.0681696,70.8561677 91.8739528,70.9795677 88.6780092,71.0304583 C85.6727936,71.0782877 82.6664268,71.0537991 79.6604438,71.0522685 C78.7499759,71.0518859 77.8389324,71.0342846 76.9286565,71.0036738 C75.6415293,70.9602446 74.6381918,70.0660251 74.668125,68.9376325 C74.7074603,67.4447795 74.3031703,66.0753264 73.6367731,64.764034 C71.9929421,61.5298061 69.1364331,59.8224857 65.8604757,58.6619518 C65.2261223,58.4373446 64.5205817,58.7375223 64.123775,59.2835434 C63.4562265,60.2022516 63.8482362,61.3964576 64.9926051,61.8431847 C66.3683805,62.3802138 67.6860165,63.015389 68.8311529,63.961647 C70.2130685,65.1032405 71.2106497,66.5101919 71.2987223,68.331729 C71.4629711,71.7299163 70.4918693,74.6746803 67.5800991,76.7543052 C65.7281758,78.0769746 63.8030164,79.1515257 61.8116508,80 L43.3436622,80 C43.1314267,79.0530059 43.0556017,78.0940772 43.1979808,77.1113043 C43.5713782,74.5294701 44.6754524,72.3922586 46.9507586,70.9569922 C48.4266951,70.0258484 50.0302314,69.3977519 51.7279806,69.0541451 C53.1482721,68.7665944 54.5960023,68.6133488 56.0320279,68.4044297 C56.6936282,68.3081969 57.1533713,67.9519631 57.3803646,67.331328 C57.7957836,66.1943261 56.9073818,65.0668902 55.6210222,65.1397822 C52.7119383,65.3043156 49.892462,65.8908961 47.2226517,67.0801277 C45.1177345,68.0177764 43.2424969,69.2862136 41.9561372,71.2384208 C40.1715753,73.9466717 39.4962965,76.8735595 39.9935898,80 L20.6263226,80 Z M72.7913523,33.259344 C68.5911118,33.2757974 65.3370286,34.4392011 62.3874582,36.5077295 C61.5581553,37.089527 61.3927552,38.0662045 61.9474786,38.8571125 C62.4565347,39.582781 63.4449057,39.7607066 64.2436997,39.2242514 C65.8990435,38.1123121 67.6539727,37.2311022 69.6197774,36.8136467 C73.0123974,36.0931437 76.1833968,36.7443896 79.1726863,38.401776 C79.908352,38.8096656 80.5975829,39.3093878 81.275301,39.8110232 C82.1172679,40.4337627 83.1123546,40.3865072 83.708524,39.6434288 C84.3089147,38.8948021 84.1786286,37.9043497 83.3596872,37.2397115 C80.1188437,34.609474 76.3854458,33.3429499 72.7913523,33.259344 Z M73.8748954,46.885574 C74.0968999,47.2728013 74.2471415,47.7315814 74.5524217,48.0355854 C76.4347588,49.9116481 78.5855353,51.4023967 81.0523371,52.4334084 C81.5136153,52.6262568 81.9677939,52.9050069 82.3329404,53.2432568 C83.0265845,53.8860847 83.0246657,54.7542851 82.8826749,55.6077539 C82.6006122,57.3037865 82.2863137,58.9944622 81.9858305,60.6874337 C81.7918404,61.7800498 82.2297093,62.5814802 83.1568706,62.8332545 C84.1162678,63.0938294 85.0290382,62.4825689 85.2199582,61.4347211 C85.5451938,59.6491518 85.8658243,57.8626259 86.1755177,56.0741868 C86.3961791,54.7992448 87.4365493,53.8156798 88.7248277,53.7437443 C94.1646094,53.4393576 98.93761,51.382117 103.298837,48.2446958 C104.199136,47.597085 104.358396,46.5993625 103.734787,45.7889401 C103.167976,45.0521752 102.152934,44.98464 101.301565,45.6171367 C98.2232429,47.9035761 94.8519215,49.5492921 91.0465687,50.2183306 C85.7249848,51.1536835 81.1335021,49.6669526 77.2074573,46.0189042 C76.7724666,45.6148409 76.356472,45.2035076 75.6989012,45.1910719 C74.7515925,45.173088 73.9984658,45.8801988 73.9978901,46.815743 C73.956828,46.8390837 73.9159576,46.8624245 73.8748954,46.885574 Z M37.6211973,57.3707477 C36.9200699,57.3298057 36.2181749,57.2976643 35.5176232,57.2461998 C34.4814743,57.1700553 33.6640679,57.7709846 33.5951832,58.6749614 C33.5132507,59.7494023 34.1733159,60.4498169 35.3038695,60.5364839 C38.1872416,60.757456 41.0514257,60.699678 43.8668725,59.958704 C47.3391225,59.0449701 50.1609013,57.222859 52.0576294,54.1066742 C52.419514,53.5122497 53.0419709,53.2675542 53.6962797,53.2752069 C54.4893173,53.2843902 55.28389,53.3951632 56.0723226,53.5009619 C59.679272,53.9859527 63.0682463,53.3903802 66.1962647,51.4940379 C66.964358,51.0283703 67.2815347,50.3845858 67.1420384,49.6725008 C66.9044916,48.4624155 65.6461464,47.9617368 64.5361239,48.6323058 C62.6175216,49.7916918 60.5170175,50.3400087 58.2914081,50.3585666 C57.5194772,50.3650714 56.7343066,50.2120171 55.9756154,50.0417442 C54.5261582,49.7163126 53.9906227,48.9294224 54.1072854,47.460484 C54.259062,45.5467318 54.1909448,43.6419714 53.8457538,41.750412 C53.6886045,40.8898644 53.1047154,40.3030926 52.3510131,40.2411057 C51.5783146,40.1773968 50.8675932,40.5646241 50.662666,41.2876142 C50.5473465,41.6943559 50.5765122,42.1671023 50.6407918,42.5950803 C50.9971119,44.9691432 50.9902042,47.3290487 50.3641016,49.6568128 C49.2763372,53.7016544 46.5409041,56.0296097 42.5177683,56.8729387 C40.9182614,57.2081276 39.2663715,57.2959425 37.6386583,57.4964435 C37.6329019,57.4545449 37.6269537,57.4126463 37.6211973,57.3707477 Z M61.3545712,28.3694516 C64.458029,28.4739111 67.4853107,28.1358525 70.237821,26.5526974 C72.1819433,25.4350187 73.6383081,23.8711867 74.4090878,21.7393321 C74.5349607,21.390751 74.6072992,20.9926186 74.5812036,20.6260536 C74.5338094,19.9552933 73.9881043,19.4595888 73.3288066,19.3788527 C72.6568449,19.296586 71.9919827,19.6260353 71.786096,20.2583408 C70.8021384,23.2794406 68.4011511,24.4878041 65.5630626,25.1304407 C64.009223,25.4824655 62.4246828,25.4981535 60.8412938,25.4208611 C59.8339268,25.3716925 59.217802,24.759858 59.1258917,23.7669185 C58.8729946,21.033178 57.4333233,19.0145835 55.2620158,17.4564911 C54.5027489,16.9118092 53.5938161,17.083804 53.1116231,17.7884276 C52.6491937,18.4635882 52.8383868,19.3440328 53.5659936,19.885271 C54.8030402,20.8057011 55.7706881,21.9094137 56.0817247,23.4772633 C56.3058398,24.6066124 55.9752316,25.6196404 55.4531277,26.5940221 C54.3346625,28.6812996 52.5939324,30.1146528 50.5342987,31.2013381 C47.8443411,32.6203425 44.9389028,33.3278358 41.9492295,33.7439521 C41.3482632,33.827558 40.7411567,33.8656302 40.1398066,33.9457924 C39.4663098,34.0353292 38.8910553,33.8082349 38.434766,33.3555769 C37.0192715,31.9520693 35.5765302,30.5676934 34.6113767,28.7861418 C33.9538059,27.5722302 33.4478198,26.3133588 33.2927813,24.9263045 C33.1872476,23.982151 32.5099132,23.4240769 31.6395482,23.5074915 C30.8102453,23.5868884 30.2608945,24.2576487 30.3399488,25.2014196 C30.481364,26.8934345 31.074847,28.4524835 31.8613608,29.943232 C32.717143,31.5646507 33.8381026,32.9886293 35.1480634,34.2672064 C37.8790832,36.9320724 39.1320559,40.2059032 39.14779,43.9765863 C39.1504763,44.6419897 39.0194226,45.3070105 38.9750985,45.9739445 C38.926553,46.7032481 39.3106956,47.2911678 39.9446652,47.5115659 C40.8827637,47.8377628 41.8636513,47.2563479 41.9143075,46.2368152 C41.9810815,44.8884071 42.0461287,43.5202933 41.8914738,42.1860427 C41.7187824,40.6929984 41.3098873,39.2259732 40.9821573,37.7524433 C40.8566681,37.1893949 41.0493151,36.8727639 41.6362742,36.7991065 C45.0947089,36.3657717 48.4552851,35.5792641 51.5871411,34.0001267 C53.9626083,32.8022857 56.014375,31.2153043 57.4976029,28.9717201 C57.7464706,28.5953979 58.0880159,28.3815046 58.5299142,28.3742345 C59.4710828,28.3587378 60.412827,28.3694516 61.3545712,28.3694516 Z" id="Combined-Shape" fill="#FDB752"></path>
    </g>
</svg>