<?xml version="1.0" encoding="UTF-8"?>
<svg width="24px" height="24px" viewBox="0 0 24 24" version="1.1" xmlns="http://www.w3.org/2000/svg" xmlns:xlink="http://www.w3.org/1999/xlink">
    <!-- Generator: Sketch 53.2 (72643) - https://sketchapp.com -->
    <title>assets/icon_like_white copy</title>
    <desc>Created with Sketch.</desc>
    <g id="assets/icon_like_white-copy" stroke="none" stroke-width="1" fill="none" fill-rule="evenodd">
        <path d="M16.0973513,8.41407395 L16.2179227,8.41407395 C17.3382924,8.41407395 18.4586958,8.41340168 19.5790655,8.41434286 C20.2268975,8.41484706 20.781721,8.64472941 21.2394689,9.10251092 C21.4808471,9.3439563 21.6463597,9.63501513 21.7672672,9.95249412 C21.8030992,10.0466118 21.8387966,10.1408639 21.8730151,10.2355866 C22.0059563,10.6034185 21.9820235,10.9770319 21.9125109,11.3520908 C21.8399395,11.743721 21.6916706,12.104595 21.4480739,12.419721 C21.3133513,12.5940403 21.2909983,12.7670824 21.3525445,12.9763261 C21.5807798,13.7520235 21.4671664,14.4826118 21.0287798,15.1608639 C20.9330824,15.3089311 20.9527126,15.4646286 20.9677714,15.6237882 C20.9980571,15.9445613 21.0222252,16.2650319 20.9644101,16.5860403 C20.8826286,17.040158 20.6942252,17.4435866 20.3931832,17.7924605 C20.3005445,17.8998218 20.2594689,18.0162924 20.2501244,18.1576034 C20.2274689,18.5004605 20.2174857,18.8473849 20.1540908,19.1835866 C20.0573849,19.6967966 19.7843429,20.1223429 19.3924437,20.467284 C18.9496874,20.8569647 18.4228303,21.0640235 17.8456538,21.1417714 C17.5913008,21.1760235 17.3321748,21.1823765 17.0750319,21.1859731 C16.5149647,21.1938387 15.9543597,21.2057714 15.3946958,21.1902756 C14.6713681,21.1702756 13.9569815,21.0697042 13.2550992,20.8865109 C12.2283429,20.6185109 11.2196034,20.2918555 10.2118387,19.9615025 C9.82914958,19.8360235 9.44877983,19.7015697 9.04773782,19.6423765 C8.92326723,19.6240571 8.79809076,19.6083261 8.67509916,19.5824101 C8.30326723,19.5041244 8.03802353,19.2063765 8.00232605,18.8291328 C7.99207395,18.720763 7.98602353,18.6115193 7.98598992,18.5026118 C7.98508235,15.9593849 7.98931765,13.4161244 7.98138487,10.8728975 C7.98004034,10.4369983 8.23886387,10.0816034 8.70155294,10.0047294 C8.9084437,9.97037647 9.07540168,9.86775462 9.22383866,9.72257815 C10.0386286,8.92563697 10.7500571,8.03804034 11.4739227,7.16140168 C11.7270655,6.85477983 11.9728807,6.54207395 12.2279731,6.23706555 C12.5496874,5.85239328 12.7485782,5.40980504 12.8568807,4.92486387 C12.9519059,4.49918319 13.0288807,4.06933445 13.1296874,3.64509916 C13.2446454,3.16123361 13.4345613,2.70876303 13.7593008,2.32301513 C13.9197042,2.13252773 14.1226622,2.02768739 14.3750319,2.03383866 C14.9814521,2.04862857 15.5649479,2.15108235 16.0970151,2.46735126 C16.5023597,2.70825882 16.7890151,3.0521916 16.9361076,3.49131765 C17.1534185,4.1401916 17.2229983,4.81131765 17.1547294,5.49585546 C17.0899563,6.14540168 16.8939563,6.7524605 16.6001076,7.33283025 C16.439637,7.64973782 16.2952672,7.97484706 16.1441748,8.29649412 C16.1288471,8.32903193 16.1174185,8.36338487 16.0973513,8.41407395" id="Fill-1" fill="#3F306E"></path>
        <path d="M3.59994286,17.1886118 C3.58562353,17.616679 3.94562353,17.9883429 4.38444706,17.9985613 C4.81607731,18.0086454 5.19409412,17.653116 5.19113613,17.2136874 C5.18817815,16.7738218 4.85866555,16.4279395 4.40841345,16.4065277 C3.99335462,16.3868303 3.61426218,16.7603092 3.59994286,17.1886118 M2.0020605,14.8043429 C2.0020605,13.4686118 2.00441345,12.1328471 2.00001008,10.7971496 C1.99916975,10.5420571 2.12323697,10.3608807 2.30286723,10.2087126 C2.46686723,10.0698218 2.66542185,10.0162084 2.87977479,10.0163092 C4.04189244,10.0169479 5.20401008,10.0176538 6.36612773,10.0160739 C6.62243025,10.0157042 6.83560672,10.1008471 7.00111933,10.3006118 C7.10485042,10.4258555 7.15453109,10.5728471 7.17849748,10.7292168 C7.19073277,10.8090487 7.19227899,10.8910319 7.19231261,10.9720739 C7.19298487,13.5259563 7.19278319,16.0798387 7.19308571,18.633721 C7.19311933,18.8176874 7.17594286,19.0001748 7.08871597,19.1639731 C6.93974118,19.443637 6.69550588,19.5806118 6.38283361,19.5814857 C5.24031261,19.5847462 4.0977916,19.5840739 2.95527059,19.581116 C2.81701849,19.5807462 2.67285042,19.5782252 2.54199328,19.5403092 C2.31288403,19.4739227 2.16212773,19.3103261 2.06095126,19.0919395 C2.01032941,18.9826958 2.00145546,18.875637 2.00152269,18.7611832 C2.00236303,17.4422588 2.0020605,16.1233345 2.0020605,14.8043429" id="Fill-4" fill="#3F306E"></path>
    </g>
</svg>