<?xml version="1.0" encoding="UTF-8"?>
<svg width="120px" height="80px" viewBox="0 0 120 80" version="1.1" xmlns="http://www.w3.org/2000/svg" xmlns:xlink="http://www.w3.org/1999/xlink">
    <!-- Generator: Sketch 53.2 (72643) - https://sketchapp.com -->
    <title>assets/icon_social</title>
    <desc>Created with Sketch.</desc>
    <g id="assets/icon_social" stroke="none" stroke-width="1" fill="none" fill-rule="evenodd">
        <path d="M59.5385694,80 L47.6088161,80 C40.7035394,72.7901971 33.8009994,65.577715 26.9121208,58.3519677 C26.3336096,57.7453582 25.9567243,56.9117918 25.5920744,56.1330082 C23.4441556,51.546741 22.6097346,46.7251692 23.1689449,41.6745536 C23.7710653,36.2354158 25.8231687,31.4181918 29.366959,27.2760992 C33.2581663,22.7282669 38.1290685,19.7872194 43.9641561,18.5830438 C50.6698539,17.199042 57.0029746,18.2832173 62.91113,21.7905265 C63.2275276,21.9785267 63.4491437,21.9715702 63.7581311,21.7844395 C66.8366309,19.9199152 70.1541522,18.7140005 73.7165542,18.2520869 C79.3314042,17.5240859 84.6744902,18.4326089 89.6818776,21.1303517 C94.5898308,23.7743553 98.303883,27.6287953 100.832478,32.6220195 C102.201122,35.3246319 103.103958,38.194375 103.409671,41.2239443 C103.550464,42.6182071 103.558391,44.0260351 103.622153,45.4279501 C103.62784,45.5552546 103.601646,45.6839504 103.584413,45.8768203 C103.353319,45.7356027 103.159276,45.6211677 102.96954,45.5001241 C100.418542,43.8756001 97.6338647,42.8688161 94.66152,42.4371634 C90.77307,41.872467 86.9900859,42.3543807 83.34307,43.8375131 C82.9811774,43.9848177 82.6871827,43.9762959 82.3283921,43.8361218 C76.091776,41.3997707 69.9289171,41.5924666 64.0147302,44.7495144 C57.9307984,47.997171 54.1397147,53.1248302 52.7657291,59.9577091 C51.6374858,65.5678037 52.6625036,70.8380717 55.5395498,75.7533828 C55.6329526,75.9126874 55.7618553,76.0544267 55.8904133,76.1885138 C57.1063244,77.4591527 58.3223948,78.7296308 59.5385694,80 Z M67.0298211,80 C64.891746,77.7701835 62.7523549,75.5416438 60.6094413,73.3165273 C59.693336,72.3653956 59.203747,71.2130462 58.7682696,70.0205228 C57.1747358,65.6558212 57.3703301,61.3368588 59.3007687,57.136853 C60.7605746,53.9606748 63.056697,51.5088453 66.0898741,49.7853647 C69.2896942,47.9669275 72.7283633,47.344144 76.3531486,47.8104055 C78.4500578,48.080145 80.4415012,48.7370155 82.2607871,49.8396257 C82.7103956,50.1121478 83.0169703,50.0745825 83.4493458,49.8265822 C86.9597042,47.8126664 90.7282126,47.1940568 94.6735314,47.9711014 C99.4867031,48.9191027 103.22402,51.5604976 105.681443,55.8265904 C108.389778,60.5286837 108.717377,65.4864296 106.706288,70.5744366 C106.197743,71.861221 105.447764,72.9405268 104.487714,73.9363542 C102.541148,75.955549 100.596919,77.9770378 98.6541899,80 L67.029821,80 Z" id="Combined-Shape" fill="#E7394C"></path>
    </g>
</svg>