<?xml version="1.0" encoding="UTF-8"?>
<svg width="334px" height="203px" viewBox="0 0 334 203" version="1.1" xmlns="http://www.w3.org/2000/svg" xmlns:xlink="http://www.w3.org/1999/xlink">
    <!-- Generator: Sketch 53.2 (72643) - https://sketchapp.com -->
    <title>logo_vertical</title>
    <desc>Created with Sketch.</desc>
    <g id="logo_vertical" stroke="none" stroke-width="1" fill="none" fill-rule="evenodd">
        <g id="logo_star" transform="translate(114.000000, 0.000000)" fill="#FFFFFF">
            <g id="Group" transform="translate(0.000000, -0.000000)">
                <path d="M40.7693317,38.8395 C40.7693317,34.2128762 44.5188564,30.4791238 49.1568416,30.4791238 C53.7965644,30.4791238 57.5456881,34.2128762 57.5456881,38.8395 C57.5456881,43.4622475 53.7965644,47.1998762 49.1568416,47.1998762 C44.5188564,47.1998762 40.7693317,43.4622475 40.7693317,38.8395 L40.7693317,38.8395 Z M10.8149703,100.220257 C39.6940099,79.2999356 47.3753762,53.4172277 13.8567475,32.0086337 C23.8117277,34.7661089 31.8900743,39.972297 39.7568317,46.1895149 C54.7805941,58.0132426 66.177401,43.0960099 68.1455941,30.2615198 L53.3348911,0 L38.5570693,30.2615198 L-2.84217094e-14,30.2615198 L30.4463762,59.3596337 L10.8149703,100.220257 Z" id="Fill-1"></path>
                <path d="M9.64613762,106.071318 C27.559301,102.45559 44.4250782,94.0338624 58.0056772,81.8746396 L94.3197416,107.173907 L73.2144297,63.1585604 L107.900207,30.2614663 L78.8058356,30.2614663 C79.2048208,22.7895505 78.7128059,15.2834168 77.3319297,7.8421099 C75.2721772,49.2216149 49.156895,90.9101495 9.64613762,106.071318" id="Fill-4"></path>
            </g>
        </g>
        <path d="M75,153.212796 L78.2082861,153.212796 L78.2082861,160.282337 L86.5641954,160.282337 L86.5641954,153.212796 L89.7724815,153.212796 L89.7724815,169.763561 L86.5641954,169.763561 L86.5641954,163.048679 L78.2082861,163.048679 L78.2082861,169.763561 L75,169.763561 L75,153.212796 Z M105.518622,153 C107.178639,153 108.690988,153.370418 110.055713,154.111266 C111.420439,154.852113 112.493847,155.868793 113.27597,157.161335 C114.058094,158.453878 114.44915,159.888263 114.44915,161.464534 C114.44915,163.040805 114.058094,164.479131 113.27597,165.779555 C112.493847,167.079979 111.420439,168.10848 110.055713,168.86509 C108.690988,169.621701 107.178639,170 105.518622,170 C103.858605,170 102.346256,169.621701 100.981531,168.86509 C99.6168052,168.10848 98.5433968,167.079979 97.7612734,165.779555 C96.97915,164.479131 96.5880942,163.040805 96.5880942,161.464534 C96.5880942,159.888263 96.97915,158.453878 97.7612734,157.161335 C98.5433968,155.868793 99.6168052,154.852113 100.981531,154.111266 C102.346256,153.370418 103.858605,153 105.518622,153 Z M105.566507,155.837274 C104.544958,155.837274 103.595251,156.085533 102.717357,156.582058 C101.839464,157.078584 101.14514,157.75637 100.634365,158.615438 C100.123591,159.474506 99.8682076,160.424195 99.8682076,161.464534 C99.8682076,162.504873 100.127581,163.458503 100.646337,164.325452 C101.165092,165.192401 101.859416,165.878069 102.729328,166.382476 C103.599241,166.886882 104.544958,167.139082 105.566507,167.139082 C106.572094,167.139082 107.50584,166.886882 108.367771,166.382476 C109.229703,165.878069 109.912056,165.192401 110.41485,164.325452 C110.917643,163.458503 111.169036,162.504873 111.169036,161.464534 C111.169036,160.424195 110.917643,159.474506 110.41485,158.615438 C109.912056,157.75637 109.229703,157.078584 108.367771,156.582058 C107.50584,156.085533 106.572094,155.837274 105.566507,155.837274 Z M121.264762,153.212796 L124.927955,153.212796 L130.482599,163.876217 L135.989359,153.212796 L139.652551,153.212796 L139.652551,169.763561 L136.707632,169.763561 L136.707632,157.894298 L131.488181,168.061196 L129.429132,168.061196 L124.185739,157.894298 L124.185739,169.763561 L121.264762,169.763561 L121.264762,153.212796 Z M147.761055,153.212796 L160.043524,153.212796 L160.043524,155.979138 L150.969341,155.979138 L150.969341,160.069541 L159.109769,160.069541 L159.109769,162.835883 L150.969341,162.835883 L150.969341,166.997218 L160.330833,166.997218 L160.330833,169.763561 L147.761055,169.763561 L147.761055,153.212796 Z M177.433711,153.212796 L180.641997,153.212796 L180.641997,160.282337 L188.997907,160.282337 L188.997907,153.212796 L192.206193,153.212796 L192.206193,169.763561 L188.997907,169.763561 L188.997907,163.048679 L180.641997,163.048679 L180.641997,169.763561 L177.433711,169.763561 L177.433711,153.212796 Z M200.338639,153.212796 L212.621108,153.212796 L212.621108,155.979138 L203.546925,155.979138 L203.546925,160.069541 L211.687353,160.069541 L211.687353,162.835883 L203.546925,162.835883 L203.546925,166.997218 L212.908417,166.997218 L212.908417,169.763561 L200.338639,169.763561 L200.338639,153.212796 Z M230.641779,169.763561 L227.744745,164.869263 C227.617051,164.885026 227.417533,164.892907 227.146184,164.892907 L223.36328,164.892907 L223.36328,169.763561 L220.154993,169.763561 L220.154993,153.212796 L227.146184,153.212796 C229.316976,153.212796 230.992929,153.709314 232.174095,154.702364 C233.355261,155.695415 233.945835,157.098276 233.945835,158.910987 C233.945835,160.20353 233.662519,161.306903 233.095879,162.22114 C232.529238,163.135378 231.703233,163.821045 230.617837,164.278164 L234.304972,169.763561 L230.641779,169.763561 Z M223.36328,162.102921 L227.146184,162.102921 C228.359273,162.102921 229.285038,161.84284 229.923506,161.32267 C230.561974,160.802501 230.881204,160.03014 230.881204,159.005563 C230.881204,157.99675 230.561974,157.240151 229.923506,156.735744 C229.285038,156.231337 228.359273,155.979138 227.146184,155.979138 L223.36328,155.979138 L223.36328,162.102921 Z M249.069472,153 C250.729489,153 252.241838,153.370418 253.606563,154.111266 C254.971289,154.852113 256.044697,155.868793 256.826821,157.161335 C257.608944,158.453878 258,159.888263 258,161.464534 C258,163.040805 257.608944,164.479131 256.826821,165.779555 C256.044697,167.079979 254.971289,168.10848 253.606563,168.86509 C252.241838,169.621701 250.729489,170 249.069472,170 C247.409455,170 245.897107,169.621701 244.532381,168.86509 C243.167656,168.10848 242.094247,167.079979 241.312124,165.779555 C240.53,164.479131 240.138945,163.040805 240.138945,161.464534 C240.138945,159.888263 240.53,158.453878 241.312124,157.161335 C242.094247,155.868793 243.167656,154.852113 244.532381,154.111266 C245.897107,153.370418 247.409455,153 249.069472,153 Z M249.117357,155.837274 C248.095808,155.837274 247.146101,156.085533 246.268208,156.582058 C245.390314,157.078584 244.69599,157.75637 244.185216,158.615438 C243.674441,159.474506 243.419058,160.424195 243.419058,161.464534 C243.419058,162.504873 243.678432,163.458503 244.197187,164.325452 C244.715942,165.192401 245.410266,165.878069 246.280179,166.382476 C247.150092,166.886882 248.095808,167.139082 249.117357,167.139082 C250.122944,167.139082 251.05669,166.886882 251.918622,166.382476 C252.780554,165.878069 253.462906,165.192401 253.9657,164.325452 C254.468494,163.458503 254.719887,162.504873 254.719887,161.464534 C254.719887,160.424195 254.468494,159.474506 253.9657,158.615438 C253.462906,157.75637 252.780554,157.078584 251.918622,156.582058 C251.05669,156.085533 250.122944,155.837274 249.117357,155.837274 Z" id="HOMEHERO" fill="#FFFFFF" fill-rule="nonzero"></path>
        <path d="M97.5853934,192.529494 C97.2403171,192.301965 96.8631463,192.127107 96.4538698,192.004916 C96.0445932,191.882724 95.6593975,191.821629 95.2982711,191.821629 C94.7204689,191.821629 94.2570303,191.941712 93.9079415,192.181882 C93.5588527,192.422052 93.3843109,192.748593 93.3843109,193.161517 C93.3843109,193.523878 93.4806098,193.818819 93.6732105,194.046348 C93.8658113,194.273878 94.1025461,194.452949 94.3834222,194.583567 C94.6642983,194.714186 95.049494,194.85955 95.5390208,195.019663 C96.108798,195.19663 96.5682241,195.371488 96.917313,195.544242 C97.2664018,195.716995 97.5633235,195.967695 97.8080869,196.296348 C98.0528504,196.625002 98.1752302,197.058986 98.1752302,197.598315 C98.1752302,198.070227 98.0488379,198.487358 97.7960494,198.849719 C97.543261,199.21208 97.1881587,199.492274 96.7307319,199.690309 C96.2733052,199.888344 95.7476736,199.98736 95.1538213,199.98736 C94.5679941,199.98736 93.9962192,199.86517 93.4384796,199.620787 C92.8807399,199.376403 92.4012515,199.051968 92,198.647472 L92.3851995,197.926966 C92.762376,198.314609 93.1997336,198.617976 93.6972855,198.837079 C94.1948374,199.056181 94.6843569,199.16573 95.1658588,199.16573 C95.8078612,199.16573 96.317443,199.028794 96.6946195,198.754916 C97.0717959,198.481038 97.2603813,198.112362 97.2603813,197.648876 C97.2603813,197.278088 97.1640824,196.97472 96.9714817,196.738764 C96.7788809,196.502808 96.5421461,196.32163 96.26127,196.195225 C95.9803939,196.06882 95.5871733,195.921349 95.0815964,195.752809 C94.5118192,195.567415 94.0543993,195.392557 93.709323,195.22823 C93.3642467,195.063904 93.0713374,194.819524 92.8305865,194.495084 C92.5898356,194.170644 92.4694619,193.747194 92.4694619,193.224719 C92.4694619,192.778088 92.5898356,192.386238 92.8305865,192.049157 C93.0713374,191.712077 93.4083837,191.45295 93.8417353,191.27177 C94.275087,191.090589 94.7766439,191 95.3464211,191 C95.8038478,191 96.2632739,191.071628 96.7247132,191.214888 C97.1861525,191.358147 97.5934167,191.547752 97.946518,191.783708 L97.5853934,192.529494 Z M102.239888,191.088483 L103.070474,191.088483 L103.070474,195.133427 L108.330856,195.133427 L108.330856,191.088483 L109.161442,191.088483 L109.161442,199.924157 L108.330856,199.924157 L108.330856,195.917135 L103.070474,195.917135 L103.070474,199.924157 L102.239888,199.924157 L102.239888,191.088483 Z M120.099504,199.924157 L119.100393,197.573034 L114.429849,197.573034 L113.442775,199.924157 L112.552001,199.924157 L116.343809,191.088483 L117.210508,191.088483 L121.002316,199.924157 L120.099504,199.924157 Z M114.754861,196.789326 L118.775381,196.789326 L116.753083,192.011236 L114.754861,196.789326 Z M129.942155,199.924157 L128.124495,197.042135 C127.867694,197.058989 127.671084,197.067416 127.534658,197.067416 L125.223461,197.067416 L125.223461,199.924157 L124.392874,199.924157 L124.392874,191.088483 L127.534658,191.088483 C128.585937,191.088483 129.398459,191.343396 129.972249,191.85323 C130.546039,192.363064 130.832929,193.085669 130.832929,194.021067 C130.832929,194.754217 130.664406,195.365166 130.327355,195.853933 C129.990304,196.342699 129.508809,196.683988 128.882857,196.877809 L130.905154,199.924157 L129.942155,199.924157 Z M127.534658,196.283708 C128.337161,196.283708 128.955079,196.091996 129.388431,195.708567 C129.821783,195.325139 130.038455,194.771071 130.038455,194.046348 C130.038455,193.33848 129.821783,192.799159 129.388431,192.428371 C128.955079,192.057582 128.337161,191.872191 127.534658,191.872191 L125.223461,191.872191 L125.223461,196.283708 L127.534658,196.283708 Z M135.102224,191.088483 L140.735768,191.088483 L140.735768,191.872191 L135.932811,191.872191 L135.932811,195.032303 L140.230193,195.032303 L140.230193,195.816011 L135.932811,195.816011 L135.932811,199.140449 L140.892255,199.140449 L140.892255,199.924157 L135.102224,199.924157 L135.102224,191.088483 Z M156.340362,191.088483 L153.102278,196.776685 L153.102278,199.924157 L152.271692,199.924157 L152.271692,196.776685 L148.985458,191.088483 L149.852157,191.088483 L152.693004,195.841292 L155.473663,191.088483 L156.340362,191.088483 Z M162.800479,191.01264 C163.602982,191.01264 164.339268,191.212779 165.009358,191.613062 C165.679448,192.013345 166.211098,192.554772 166.604325,193.23736 C166.997551,193.919947 167.194162,194.66994 167.194162,195.48736 C167.194162,196.304779 166.997551,197.058985 166.604325,197.75 C166.211098,198.441015 165.679448,198.988762 165.009358,199.393258 C164.339268,199.797755 163.602982,200 162.800479,200 C161.997976,200 161.261691,199.797755 160.591601,199.393258 C159.921511,198.988762 159.38986,198.441015 158.996634,197.75 C158.603407,197.058985 158.406797,196.304779 158.406797,195.48736 C158.406797,194.66994 158.603407,193.919947 158.996634,193.23736 C159.38986,192.554772 159.921511,192.013345 160.591601,191.613062 C161.261691,191.212779 161.997976,191.01264 162.800479,191.01264 Z M162.812517,191.796348 C162.170514,191.796348 161.576671,191.960673 161.030969,192.289326 C160.485267,192.617979 160.051922,193.064604 159.73092,193.629213 C159.409919,194.193823 159.249421,194.813199 159.249421,195.48736 C159.249421,196.16152 159.409919,196.785109 159.73092,197.358146 C160.051922,197.931183 160.485267,198.384128 161.030969,198.716994 C161.576671,199.049861 162.170514,199.216292 162.812517,199.216292 C163.446494,199.216292 164.034319,199.049861 164.576009,198.716994 C165.117698,198.384128 165.549037,197.931183 165.870038,197.358146 C166.191039,196.785109 166.351538,196.16152 166.351538,195.48736 C166.351538,194.813199 166.191039,194.193823 165.870038,193.629213 C165.549037,193.064604 165.117698,192.617979 164.576009,192.289326 C164.034319,191.960673 163.446494,191.796348 162.812517,191.796348 Z M171.668094,196.33427 C171.668094,197.244387 171.902823,197.952245 172.372287,198.457865 C172.841751,198.963486 173.493775,199.216292 174.328378,199.216292 C175.162981,199.216292 175.812999,198.963486 176.278451,198.457865 C176.743903,197.952245 176.976625,197.244387 176.976625,196.33427 L176.976625,191.075843 L177.807212,191.075843 L177.807212,196.33427 C177.807212,197.480343 177.500259,198.377806 176.886344,199.026685 C176.272429,199.675565 175.419782,200 174.328378,200 C173.236974,200 172.382321,199.675565 171.764394,199.026685 C171.146466,198.377806 170.837507,197.480343 170.837507,196.33427 L170.837507,191.075843 L171.668094,191.075843 L171.668094,196.33427 Z M187.818387,199.924157 L186.000727,197.042135 C185.743926,197.058989 185.547316,197.067416 185.41089,197.067416 L183.099693,197.067416 L183.099693,199.924157 L182.269106,199.924157 L182.269106,191.088483 L185.41089,191.088483 C186.462169,191.088483 187.274691,191.343396 187.848481,191.85323 C188.422271,192.363064 188.709161,193.085669 188.709161,194.021067 C188.709161,194.754217 188.540638,195.365166 188.203587,195.853933 C187.866536,196.342699 187.385041,196.683988 186.759089,196.877809 L188.781386,199.924157 L187.818387,199.924157 Z M185.41089,196.283708 C186.213393,196.283708 186.831311,196.091996 187.264663,195.708567 C187.698015,195.325139 187.914687,194.771071 187.914687,194.046348 C187.914687,193.33848 187.698015,192.799159 187.264663,192.428371 C186.831311,192.057582 186.213393,191.872191 185.41089,191.872191 L183.099693,191.872191 L183.099693,196.283708 L185.41089,196.283708 Z M198.295013,191.088483 L199.125599,191.088483 L199.125599,199.924157 L198.295013,199.924157 L198.295013,191.088483 Z M207.162627,191.088483 C207.96513,191.088483 208.697403,191.282301 209.359468,191.669944 C210.021533,192.057586 210.543153,192.590586 210.924342,193.268961 C211.305531,193.947335 211.496122,194.695221 211.496122,195.51264 C211.496122,196.33006 211.305531,197.075839 210.924342,197.75 C210.543153,198.424161 210.019527,198.955054 209.35345,199.342697 C208.687372,199.730339 207.94908,199.924157 207.138552,199.924157 L203.780094,199.924157 L203.780094,191.088483 L207.162627,191.088483 Z M207.186702,199.140449 C207.82068,199.140449 208.402486,198.980339 208.932138,198.660112 C209.46179,198.339886 209.881091,197.903795 210.190055,197.351826 C210.499019,196.799857 210.653498,196.186801 210.653498,195.51264 C210.653498,194.83848 210.497012,194.223317 210.184036,193.667135 C209.87106,193.110952 209.447746,192.672754 208.914081,192.352528 C208.380417,192.032302 207.792592,191.872191 207.15059,191.872191 L204.61068,191.872191 L204.61068,199.140449 L207.186702,199.140449 Z M215.332068,191.088483 L220.965611,191.088483 L220.965611,191.872191 L216.162654,191.872191 L216.162654,195.032303 L220.460037,195.032303 L220.460037,195.816011 L216.162654,195.816011 L216.162654,199.140449 L221.122098,199.140449 L221.122098,199.924157 L215.332068,199.924157 L215.332068,191.088483 Z M231.446249,199.924157 L230.447137,197.573034 L225.776593,197.573034 L224.789519,199.924157 L223.898745,199.924157 L227.690553,191.088483 L228.557252,191.088483 L232.34906,199.924157 L231.446249,199.924157 Z M226.101605,196.789326 L230.122125,196.789326 L228.099828,192.011236 L226.101605,196.789326 Z M240.410163,192.529494 C240.065087,192.301965 239.687916,192.127107 239.27864,192.004916 C238.869363,191.882724 238.484167,191.821629 238.123041,191.821629 C237.545239,191.821629 237.0818,191.941712 236.732711,192.181882 C236.383622,192.422052 236.209081,192.748593 236.209081,193.161517 C236.209081,193.523878 236.30538,193.818819 236.49798,194.046348 C236.690581,194.273878 236.927316,194.452949 237.208192,194.583567 C237.489068,194.714186 237.874264,194.85955 238.363791,195.019663 C238.933568,195.19663 239.392994,195.371488 239.742083,195.544242 C240.091172,195.716995 240.388093,195.967695 240.632857,196.296348 C240.87762,196.625002 241,197.058986 241,197.598315 C241,198.070227 240.873608,198.487358 240.620819,198.849719 C240.368031,199.21208 240.012928,199.492274 239.555502,199.690309 C239.098075,199.888344 238.572443,199.98736 237.978591,199.98736 C237.392764,199.98736 236.820989,199.86517 236.263249,199.620787 C235.70551,199.376403 235.226021,199.051968 234.82477,198.647472 L235.209969,197.926966 C235.587146,198.314609 236.024503,198.617976 236.522055,198.837079 C237.019607,199.056181 237.509127,199.16573 237.990629,199.16573 C238.632631,199.16573 239.142213,199.028794 239.519389,198.754916 C239.896566,198.481038 240.085151,198.112362 240.085151,197.648876 C240.085151,197.278088 239.988852,196.97472 239.796251,196.738764 C239.603651,196.502808 239.366916,196.32163 239.08604,196.195225 C238.805164,196.06882 238.411943,195.921349 237.906366,195.752809 C237.336589,195.567415 236.879169,195.392557 236.534093,195.22823 C236.189016,195.063904 235.896107,194.819524 235.655356,194.495084 C235.414605,194.170644 235.294232,193.747194 235.294232,193.224719 C235.294232,192.778088 235.414605,192.386238 235.655356,192.049157 C235.896107,191.712077 236.233153,191.45295 236.666505,191.27177 C237.099857,191.090589 237.601414,191 238.171191,191 C238.628618,191 239.088044,191.071628 239.549483,191.214888 C240.010922,191.358147 240.418186,191.547752 240.771288,191.783708 L240.410163,192.529494 Z" id="SHAREYOURIDEAS" fill="#FFFFFF" fill-rule="nonzero" opacity="0.5"></path>
    </g>
</svg>