<?xml version="1.0" encoding="UTF-8"?>
<svg width="240px" height="48px" viewBox="0 0 240 48" version="1.1" xmlns="http://www.w3.org/2000/svg" xmlns:xlink="http://www.w3.org/1999/xlink">
    <!-- Generator: Sketch 53.2 (72643) - https://sketchapp.com -->
    <title>logo_horizontal</title>
    <desc>Created with Sketch.</desc>
    <g id="logo_horizontal" stroke="none" stroke-width="1" fill="none" fill-rule="evenodd">
        <g id="logo_star" fill="#FFFFFF">
            <g id="Group" transform="translate(0.000000, -0.000000)">
                <path d="M18.119703,17.262 C18.119703,15.2057228 19.7861584,13.5462772 21.8474851,13.5462772 C23.9095842,13.5462772 25.5758614,15.2057228 25.5758614,17.262 C25.5758614,19.3165545 23.9095842,20.9777228 21.8474851,20.9777228 C19.7861584,20.9777228 18.119703,19.3165545 18.119703,17.262 L18.119703,17.262 Z M4.80665347,44.5423366 C17.6417822,35.2444158 21.0557228,23.7409901 6.15855446,14.2260594 C10.5829901,15.451604 14.1733663,17.7654653 17.669703,20.5286733 C24.3469307,25.7836634 29.4121782,19.1537822 30.2869307,13.4495644 L23.704396,0 L17.1364752,13.4495644 L-2.84217094e-14,13.4495644 L13.5317228,26.3820594 L4.80665347,44.5423366 Z" id="Fill-1"></path>
                <path d="M4.28717228,47.1428079 C12.2485782,45.5358178 19.7444792,41.7928277 25.780301,36.3887287 L41.9198851,47.6328475 L32.5397465,28.0704713 L47.9556475,13.4495406 L35.0248158,13.4495406 C35.2021426,10.1286891 34.9834693,6.7926297 34.3697465,3.48538218 C33.454301,21.8762733 21.8475089,40.4045109 4.28717228,47.1428079" id="Fill-4"></path>
            </g>
        </g>
        <path d="M57.54,11 L60.7,11 L60.7,16.84 L67.04,16.84 L67.04,11 L70.2,11 L70.2,25 L67.04,25 L67.04,19.48 L60.7,19.48 L60.7,25 L57.54,25 L57.54,11 Z M76.3569231,11 L87.0169231,11 L87.0169231,13.62 L79.5169231,13.62 L79.5169231,16.66 L86.2569231,16.66 L86.2569231,19.28 L79.5169231,19.28 L79.5169231,22.38 L87.2369231,22.38 L87.2369231,25 L76.3569231,25 L76.3569231,11 Z M92.7938463,11 L95.9538463,11 L95.9538463,22.24 L101.953846,22.24 L101.953846,25 L92.7938463,25 L92.7938463,11 Z M112.850769,11 C114.277443,11 115.550764,11.2966637 116.670769,11.89 C117.790775,12.4833363 118.660766,13.3099947 119.280769,14.37 C119.900772,15.4300053 120.210769,16.6399932 120.210769,18 C120.210769,19.3600068 119.894106,20.5699947 119.260769,21.63 C118.627433,22.6900053 117.744108,23.5166637 116.610769,24.11 C115.47743,24.7033363 114.18411,25 112.730769,25 L106.910769,25 L106.910769,11 L112.850769,11 Z M112.930769,22.34 C113.704107,22.34 114.400766,22.1566685 115.020769,21.79 C115.640772,21.4233315 116.124101,20.9133366 116.470769,20.26 C116.817438,19.6066634 116.990769,18.8600042 116.990769,18.02 C116.990769,17.1799958 116.807438,16.42667 116.440769,15.76 C116.074101,15.09333 115.574106,14.5766685 114.940769,14.21 C114.307433,13.8433315 113.590773,13.66 112.790769,13.66 L110.070769,13.66 L110.070769,22.34 L112.930769,22.34 Z M125.367693,11 L136.027693,11 L136.027693,13.62 L128.527693,13.62 L128.527693,16.66 L135.267693,16.66 L135.267693,19.28 L128.527693,19.28 L128.527693,22.38 L136.247693,22.38 L136.247693,25 L125.367693,25 L125.367693,11 Z M151.484616,11 L154.484616,11 L154.484616,25 L151.604616,25 L144.824616,16 L144.824616,25 L141.804616,25 L141.804616,11 L144.684616,11 L151.484616,20.04 L151.484616,11 Z M159.981539,11 L171.801539,11 L171.801539,13.12 L163.981539,22.36 L171.921539,22.36 L171.901539,25 L159.721539,25 L159.721539,22.86 L167.561539,13.64 L159.981539,13.64 L159.981539,11 Z M177.158462,11 L187.818462,11 L187.818462,13.62 L180.318462,13.62 L180.318462,16.66 L187.058462,16.66 L187.058462,19.28 L180.318462,19.28 L180.318462,22.38 L188.038462,22.38 L188.038462,25 L177.158462,25 L177.158462,11 Z M193.595385,11 L196.755385,11 L196.755385,25 L193.595385,25 L193.595385,11 Z M201.552308,11 L213.252308,11 L213.252308,13.68 L208.972308,13.68 L208.972308,25 L205.812308,25 L205.812308,13.68 L201.552308,13.68 L201.552308,11 Z" id="HELDENZEIT" fill="#FFFFFF" fill-rule="nonzero"></path>
        <path d="M56.638,33.311 L62.699,33.311 L62.699,33.894 L57.485,40.318 L62.743,40.318 L62.743,41 L56.495,41 L56.495,40.406 L61.72,33.993 L56.638,33.993 L56.638,33.311 Z M66.1372859,33.311 L71.2852859,33.311 L71.2852859,33.993 L66.8962859,33.993 L66.8962859,36.743 L70.8232859,36.743 L70.8232859,37.425 L66.8962859,37.425 L66.8962859,40.318 L71.4282859,40.318 L71.4282859,41 L66.1372859,41 L66.1372859,33.311 Z M74.9765717,33.311 L75.7355717,33.311 L75.7355717,41 L74.9765717,41 L74.9765717,33.311 Z M78.7558576,33.3 L84.5968576,33.3 L84.5968576,33.993 L82.0558576,33.993 L82.0558576,41 L81.2968576,41 L81.2968576,33.993 L78.7558576,33.993 L78.7558576,33.3 Z M92.3314294,33.311 L97.1494294,33.311 L97.1494294,33.993 L93.0904294,33.993 L93.0904294,36.952 L96.7094294,36.952 L96.7094294,37.634 L93.0904294,37.634 L93.0904294,41 L92.3314294,41 L92.3314294,33.311 Z M100.763715,37.876 C100.763715,38.668004 100.978213,39.2839978 101.407215,39.724 C101.836217,40.1640022 102.432045,40.384 103.194715,40.384 C103.957386,40.384 104.55138,40.1640022 104.976715,39.724 C105.402051,39.2839978 105.614715,38.668004 105.614715,37.876 L105.614715,33.3 L106.373715,33.3 L106.373715,37.876 C106.373715,38.8733383 106.093218,39.6543305 105.532215,40.219 C104.971212,40.7836695 104.192054,41.066 103.194715,41.066 C102.197377,41.066 101.416385,40.7836695 100.851715,40.219 C100.287046,39.6543305 100.004715,38.8733383 100.004715,37.876 L100.004715,33.3 L100.763715,33.3 L100.763715,37.876 Z M102.303715,31.595 C102.435716,31.595 102.547548,31.6408329 102.639215,31.7325 C102.730882,31.8241671 102.776715,31.939666 102.776715,32.079 C102.776715,32.2110007 102.730882,32.3246662 102.639215,32.42 C102.547548,32.5153338 102.435716,32.563 102.303715,32.563 C102.164381,32.563 102.048882,32.5153338 101.957215,32.42 C101.865548,32.3246662 101.819715,32.2110007 101.819715,32.079 C101.819715,31.939666 101.865548,31.8241671 101.957215,31.7325 C102.048882,31.6408329 102.164381,31.595 102.303715,31.595 Z M104.118715,31.595 C104.250716,31.595 104.362548,31.6408329 104.454215,31.7325 C104.545882,31.8241671 104.591715,31.939666 104.591715,32.079 C104.591715,32.2110007 104.545882,32.3246662 104.454215,32.42 C104.362548,32.5153338 104.250716,32.563 104.118715,32.563 C103.979381,32.563 103.863882,32.5153338 103.772215,32.42 C103.680548,32.3246662 103.634715,32.2110007 103.634715,32.079 C103.634715,31.939666 103.680548,31.8241671 103.772215,31.7325 C103.863882,31.6408329 103.979381,31.595 104.118715,31.595 Z M115.378001,41 L113.717001,38.492 C113.482333,38.5066667 113.302668,38.514 113.178001,38.514 L111.066001,38.514 L111.066001,41 L110.307001,41 L110.307001,33.311 L113.178001,33.311 C114.138673,33.311 114.881165,33.5328311 115.405501,33.9765 C115.929837,34.4201689 116.192001,35.0489959 116.192001,35.863 C116.192001,36.5010032 116.038003,37.0326645 115.730001,37.458 C115.422,37.8833355 114.982004,38.1803325 114.410001,38.349 L116.258001,41 L115.378001,41 Z M113.178001,37.832 C113.911338,37.832 114.475999,37.6651683 114.872001,37.3315 C115.268003,36.9978317 115.466001,36.5156698 115.466001,35.885 C115.466001,35.2689969 115.268003,34.7996683 114.872001,34.477 C114.475999,34.1543317 113.911338,33.993 113.178001,33.993 L111.066001,33.993 L111.066001,37.832 L113.178001,37.832 Z M124.663573,33.311 L125.422573,33.311 L125.422573,36.831 L130.229573,36.831 L130.229573,33.311 L130.988573,33.311 L130.988573,41 L130.229573,41 L130.229573,37.513 L125.422573,37.513 L125.422573,41 L124.663573,41 L124.663573,33.311 Z M135.097859,33.311 L140.245859,33.311 L140.245859,33.993 L135.856859,33.993 L135.856859,36.743 L139.783859,36.743 L139.783859,37.425 L135.856859,37.425 L135.856859,40.318 L140.388859,40.318 L140.388859,41 L135.097859,41 L135.097859,33.311 Z M143.937145,33.311 L144.696145,33.311 L144.696145,40.318 L148.084145,40.318 L148.084145,41 L143.937145,41 L143.937145,33.311 Z M154.36043,33.311 C155.093767,33.311 155.762927,33.479665 156.36793,33.817 C156.972934,34.154335 157.449595,34.6181637 157.79793,35.2085 C158.146266,35.7988363 158.32043,36.4496631 158.32043,37.161 C158.32043,37.8723369 158.146266,38.5213304 157.79793,39.108 C157.449595,39.6946696 156.9711,40.156665 156.36243,40.494 C155.753761,40.831335 155.079101,41 154.33843,41 L151.26943,41 L151.26943,33.311 L154.36043,33.311 Z M154.38243,40.318 C154.961767,40.318 155.493428,40.1786681 155.97743,39.9 C156.461433,39.6213319 156.844596,39.2418357 157.12693,38.7615 C157.409265,38.2811643 157.55043,37.7476696 157.55043,37.161 C157.55043,36.5743304 157.407432,36.0390024 157.12143,35.555 C156.835429,35.0709976 156.4486,34.6896681 155.96093,34.411 C155.473261,34.1323319 154.9361,33.993 154.34943,33.993 L152.02843,33.993 L152.02843,40.318 L154.38243,40.318 Z M161.681716,33.311 L166.829716,33.311 L166.829716,33.993 L162.440716,33.993 L162.440716,36.743 L166.367716,36.743 L166.367716,37.425 L162.440716,37.425 L162.440716,40.318 L166.972716,40.318 L166.972716,41 L161.681716,41 L161.681716,33.311 Z M176.098002,33.311 L176.846002,33.311 L176.846002,41 L176.043002,41 L171.280002,34.488 L171.280002,41 L170.521002,41 L170.521002,33.311 L171.324002,33.311 L176.098002,39.823 L176.098002,33.311 Z" id="ZEITFÜRHELDEN" fill="#FFFFFF" fill-rule="nonzero" opacity="0.5"></path>
    </g>
</svg>