<?xml version="1.0" encoding="UTF-8"?>
<svg width="334px" height="203px" viewBox="0 0 334 203" version="1.1" xmlns="http://www.w3.org/2000/svg" xmlns:xlink="http://www.w3.org/1999/xlink">
    <!-- Generator: Sketch 53.2 (72643) - https://sketchapp.com -->
    <title>logo_vertical</title>
    <desc>Created with Sketch.</desc>
    <g id="logo_vertical" stroke="none" stroke-width="1" fill="none" fill-rule="evenodd">
        <g id="logo_star" transform="translate(114.000000, 0.000000)" fill="#FFFFFF">
            <g id="Group" transform="translate(0.000000, -0.000000)">
                <path d="M40.7693317,38.8395 C40.7693317,34.2128762 44.5188564,30.4791238 49.1568416,30.4791238 C53.7965644,30.4791238 57.5456881,34.2128762 57.5456881,38.8395 C57.5456881,43.4622475 53.7965644,47.1998762 49.1568416,47.1998762 C44.5188564,47.1998762 40.7693317,43.4622475 40.7693317,38.8395 L40.7693317,38.8395 Z M10.8149703,100.220257 C39.6940099,79.2999356 47.3753762,53.4172277 13.8567475,32.0086337 C23.8117277,34.7661089 31.8900743,39.972297 39.7568317,46.1895149 C54.7805941,58.0132426 66.177401,43.0960099 68.1455941,30.2615198 L53.3348911,0 L38.5570693,30.2615198 L-2.84217094e-14,30.2615198 L30.4463762,59.3596337 L10.8149703,100.220257 Z" id="Fill-1"></path>
                <path d="M9.64613762,106.071318 C27.559301,102.45559 44.4250782,94.0338624 58.0056772,81.8746396 L94.3197416,107.173907 L73.2144297,63.1585604 L107.900207,30.2614663 L78.8058356,30.2614663 C79.2048208,22.7895505 78.7128059,15.2834168 77.3319297,7.8421099 C75.2721772,49.2216149 49.156895,90.9101495 9.64613762,106.071318" id="Fill-4"></path>
            </g>
        </g>
        <path d="M67.002,151.8 L71.11,151.8 L71.11,159.392 L79.352,159.392 L79.352,151.8 L83.46,151.8 L83.46,170 L79.352,170 L79.352,162.824 L71.11,162.824 L71.11,170 L67.002,170 L67.002,151.8 Z M91.464,151.8 L105.322,151.8 L105.322,155.206 L95.572,155.206 L95.572,159.158 L104.334,159.158 L104.334,162.564 L95.572,162.564 L95.572,166.594 L105.608,166.594 L105.608,170 L91.464,170 L91.464,151.8 Z M112.832,151.8 L116.94,151.8 L116.94,166.412 L124.74,166.412 L124.74,170 L112.832,170 L112.832,151.8 Z M138.906,151.8 C140.760676,151.8 142.415993,152.185663 143.872,152.957 C145.328007,153.728337 146.458996,154.802993 147.265,156.181 C148.071004,157.559007 148.474,159.131991 148.474,160.9 C148.474,162.668009 148.062337,164.240993 147.239,165.619 C146.415663,166.997007 145.267341,168.071663 143.794,168.843 C142.320659,169.614337 140.639343,170 138.75,170 L131.184,170 L131.184,151.8 L138.906,151.8 Z M139.01,166.542 C140.015338,166.542 140.920996,166.303669 141.727,165.827 C142.533004,165.350331 143.161331,164.687338 143.612,163.838 C144.062669,162.988662 144.288,162.018005 144.288,160.926 C144.288,159.833995 144.049669,158.854671 143.573,157.988 C143.096331,157.121329 142.446337,156.449669 141.623,155.973 C140.799663,155.496331 139.868005,155.258 138.828,155.258 L135.292,155.258 L135.292,166.542 L139.01,166.542 Z M155.178,151.8 L169.036,151.8 L169.036,155.206 L159.286,155.206 L159.286,159.158 L168.048,159.158 L168.048,162.564 L159.286,162.564 L159.286,166.594 L169.322,166.594 L169.322,170 L155.178,170 L155.178,151.8 Z M189.13,151.8 L193.03,151.8 L193.03,170 L189.286,170 L180.472,158.3 L180.472,170 L176.546,170 L176.546,151.8 L180.29,151.8 L189.13,163.552 L189.13,151.8 Z M200.176,151.8 L215.542,151.8 L215.542,154.556 L205.376,166.568 L215.698,166.568 L215.672,170 L199.838,170 L199.838,167.218 L210.03,155.232 L200.176,155.232 L200.176,151.8 Z M222.506,151.8 L236.364,151.8 L236.364,155.206 L226.614,155.206 L226.614,159.158 L235.376,159.158 L235.376,162.564 L226.614,162.564 L226.614,166.594 L236.65,166.594 L236.65,170 L222.506,170 L222.506,151.8 Z M243.874,151.8 L247.982,151.8 L247.982,170 L243.874,170 L243.874,151.8 Z M254.218,151.8 L269.428,151.8 L269.428,155.284 L263.864,155.284 L263.864,170 L259.756,170 L259.756,155.284 L254.218,155.284 L254.218,151.8 Z" id="HELDENZEIT" fill="#FFFFFF" fill-rule="nonzero"></path>
        <path d="M105.638,182.311 L111.699,182.311 L111.699,182.894 L106.485,189.318 L111.743,189.318 L111.743,190 L105.495,190 L105.495,189.406 L110.72,182.993 L105.638,182.993 L105.638,182.311 Z M115.137286,182.311 L120.285286,182.311 L120.285286,182.993 L115.896286,182.993 L115.896286,185.743 L119.823286,185.743 L119.823286,186.425 L115.896286,186.425 L115.896286,189.318 L120.428286,189.318 L120.428286,190 L115.137286,190 L115.137286,182.311 Z M123.976572,182.311 L124.735572,182.311 L124.735572,190 L123.976572,190 L123.976572,182.311 Z M127.755858,182.3 L133.596858,182.3 L133.596858,182.993 L131.055858,182.993 L131.055858,190 L130.296858,190 L130.296858,182.993 L127.755858,182.993 L127.755858,182.3 Z M141.331429,182.311 L146.149429,182.311 L146.149429,182.993 L142.090429,182.993 L142.090429,185.952 L145.709429,185.952 L145.709429,186.634 L142.090429,186.634 L142.090429,190 L141.331429,190 L141.331429,182.311 Z M149.763715,186.876 C149.763715,187.668004 149.978213,188.283998 150.407215,188.724 C150.836217,189.164002 151.432045,189.384 152.194715,189.384 C152.957386,189.384 153.55138,189.164002 153.976715,188.724 C154.402051,188.283998 154.614715,187.668004 154.614715,186.876 L154.614715,182.3 L155.373715,182.3 L155.373715,186.876 C155.373715,187.873338 155.093218,188.654331 154.532215,189.219 C153.971212,189.783669 153.192054,190.066 152.194715,190.066 C151.197377,190.066 150.416385,189.783669 149.851715,189.219 C149.287046,188.654331 149.004715,187.873338 149.004715,186.876 L149.004715,182.3 L149.763715,182.3 L149.763715,186.876 Z M151.303715,180.595 C151.435716,180.595 151.547548,180.640833 151.639215,180.7325 C151.730882,180.824167 151.776715,180.939666 151.776715,181.079 C151.776715,181.211001 151.730882,181.324666 151.639215,181.42 C151.547548,181.515334 151.435716,181.563 151.303715,181.563 C151.164381,181.563 151.048882,181.515334 150.957215,181.42 C150.865548,181.324666 150.819715,181.211001 150.819715,181.079 C150.819715,180.939666 150.865548,180.824167 150.957215,180.7325 C151.048882,180.640833 151.164381,180.595 151.303715,180.595 Z M153.118715,180.595 C153.250716,180.595 153.362548,180.640833 153.454215,180.7325 C153.545882,180.824167 153.591715,180.939666 153.591715,181.079 C153.591715,181.211001 153.545882,181.324666 153.454215,181.42 C153.362548,181.515334 153.250716,181.563 153.118715,181.563 C152.979381,181.563 152.863882,181.515334 152.772215,181.42 C152.680548,181.324666 152.634715,181.211001 152.634715,181.079 C152.634715,180.939666 152.680548,180.824167 152.772215,180.7325 C152.863882,180.640833 152.979381,180.595 153.118715,180.595 Z M164.378001,190 L162.717001,187.492 C162.482333,187.506667 162.302668,187.514 162.178001,187.514 L160.066001,187.514 L160.066001,190 L159.307001,190 L159.307001,182.311 L162.178001,182.311 C163.138673,182.311 163.881165,182.532831 164.405501,182.9765 C164.929837,183.420169 165.192001,184.048996 165.192001,184.863 C165.192001,185.501003 165.038003,186.032665 164.730001,186.458 C164.422,186.883335 163.982004,187.180332 163.410001,187.349 L165.258001,190 L164.378001,190 Z M162.178001,186.832 C162.911338,186.832 163.475999,186.665168 163.872001,186.3315 C164.268003,185.997832 164.466001,185.51567 164.466001,184.885 C164.466001,184.268997 164.268003,183.799668 163.872001,183.477 C163.475999,183.154332 162.911338,182.993 162.178001,182.993 L160.066001,182.993 L160.066001,186.832 L162.178001,186.832 Z M173.663573,182.311 L174.422573,182.311 L174.422573,185.831 L179.229573,185.831 L179.229573,182.311 L179.988573,182.311 L179.988573,190 L179.229573,190 L179.229573,186.513 L174.422573,186.513 L174.422573,190 L173.663573,190 L173.663573,182.311 Z M184.097859,182.311 L189.245859,182.311 L189.245859,182.993 L184.856859,182.993 L184.856859,185.743 L188.783859,185.743 L188.783859,186.425 L184.856859,186.425 L184.856859,189.318 L189.388859,189.318 L189.388859,190 L184.097859,190 L184.097859,182.311 Z M192.937145,182.311 L193.696145,182.311 L193.696145,189.318 L197.084145,189.318 L197.084145,190 L192.937145,190 L192.937145,182.311 Z M203.36043,182.311 C204.093767,182.311 204.762927,182.479665 205.36793,182.817 C205.972934,183.154335 206.449595,183.618164 206.79793,184.2085 C207.146266,184.798836 207.32043,185.449663 207.32043,186.161 C207.32043,186.872337 207.146266,187.52133 206.79793,188.108 C206.449595,188.69467 205.9711,189.156665 205.36243,189.494 C204.753761,189.831335 204.079101,190 203.33843,190 L200.26943,190 L200.26943,182.311 L203.36043,182.311 Z M203.38243,189.318 C203.961767,189.318 204.493428,189.178668 204.97743,188.9 C205.461433,188.621332 205.844596,188.241836 206.12693,187.7615 C206.409265,187.281164 206.55043,186.74767 206.55043,186.161 C206.55043,185.57433 206.407432,185.039002 206.12143,184.555 C205.835429,184.070998 205.4486,183.689668 204.96093,183.411 C204.473261,183.132332 203.9361,182.993 203.34943,182.993 L201.02843,182.993 L201.02843,189.318 L203.38243,189.318 Z M210.681716,182.311 L215.829716,182.311 L215.829716,182.993 L211.440716,182.993 L211.440716,185.743 L215.367716,185.743 L215.367716,186.425 L211.440716,186.425 L211.440716,189.318 L215.972716,189.318 L215.972716,190 L210.681716,190 L210.681716,182.311 Z M225.098002,182.311 L225.846002,182.311 L225.846002,190 L225.043002,190 L220.280002,183.488 L220.280002,190 L219.521002,190 L219.521002,182.311 L220.324002,182.311 L225.098002,188.823 L225.098002,182.311 Z" id="ZEITFÜRHELDEN" fill="#FFFFFF" fill-rule="nonzero" opacity="0.5"></path>
    </g>
</svg>