<?xml version="1.0" encoding="UTF-8"?>
<svg width="334px" height="48px" viewBox="0 0 334 48" version="1.1" xmlns="http://www.w3.org/2000/svg" xmlns:xlink="http://www.w3.org/1999/xlink">
    <!-- Generator: Sketch 53.2 (72643) - https://sketchapp.com -->
    <title>logo_horizontal</title>
    <desc>Created with Sketch.</desc>
    <g id="logo_horizontal" stroke="none" stroke-width="1" fill="none" fill-rule="evenodd">
        <g id="logo_star" fill="#FFFFFF">
            <g id="Group" transform="translate(0.000000, -0.000000)">
                <path d="M18.119703,17.262 C18.119703,15.2057228 19.7861584,13.5462772 21.8474851,13.5462772 C23.9095842,13.5462772 25.5758614,15.2057228 25.5758614,17.262 C25.5758614,19.3165545 23.9095842,20.9777228 21.8474851,20.9777228 C19.7861584,20.9777228 18.119703,19.3165545 18.119703,17.262 L18.119703,17.262 Z M4.80665347,44.5423366 C17.6417822,35.2444158 21.0557228,23.7409901 6.15855446,14.2260594 C10.5829901,15.451604 14.1733663,17.7654653 17.669703,20.5286733 C24.3469307,25.7836634 29.4121782,19.1537822 30.2869307,13.4495644 L23.704396,0 L17.1364752,13.4495644 L-2.84217094e-14,13.4495644 L13.5317228,26.3820594 L4.80665347,44.5423366 Z" id="Fill-1"></path>
                <path d="M4.28717228,47.1428079 C12.2485782,45.5358178 19.7444792,41.7928277 25.780301,36.3887287 L41.9198851,47.6328475 L32.5397465,28.0704713 L47.9556475,13.4495406 L35.0248158,13.4495406 C35.2021426,10.1286891 34.9834693,6.7926297 34.3697465,3.48538218 C33.454301,21.8762733 21.8475089,40.4045109 4.28717228,47.1428079" id="Fill-4"></path>
            </g>
        </g>
        <path d="M58,14.1502086 L60.1388573,14.1502086 L60.1388573,19.1404729 L65.7094634,19.1404729 L65.7094634,14.1502086 L67.8483208,14.1502086 L67.8483208,25.8331015 L65.7094634,25.8331015 L65.7094634,21.093185 L60.1388573,21.093185 L60.1388573,25.8331015 L58,25.8331015 L58,14.1502086 Z M78.3457478,14 C79.4524258,14 80.4606582,14.2614717 81.3704752,14.7844228 C82.2802922,15.307374 82.9958977,16.0250302 83.5173133,16.9374131 C84.0387289,17.8497959 84.2994328,18.8623032 84.2994328,19.9749652 C84.2994328,21.0876273 84.0387289,22.1029161 83.5173133,23.0208623 C82.9958977,23.9388085 82.2802922,24.6648096 81.3704752,25.1988873 C80.4606582,25.7329651 79.4524258,26 78.3457478,26 C77.2390698,26 76.2308375,25.7329651 75.3210205,25.1988873 C74.4112035,24.6648096 73.6955979,23.9388085 73.1741823,23.0208623 C72.6527667,22.1029161 72.3920628,21.0876273 72.3920628,19.9749652 C72.3920628,18.8623032 72.6527667,17.8497959 73.1741823,16.9374131 C73.6955979,16.0250302 74.4112035,15.307374 75.3210205,14.7844228 C76.2308375,14.2614717 77.2390698,14 78.3457478,14 Z M78.3776711,16.0027816 C77.6966385,16.0027816 77.0635004,16.1780233 76.478238,16.5285118 C75.8929756,16.8790004 75.4300932,17.3574379 75.0895769,17.9638387 C74.7490606,18.5702395 74.578805,19.2406083 74.578805,19.9749652 C74.578805,20.7093222 74.7517209,21.3824726 75.0975577,21.9944367 C75.4433946,22.6064008 75.906277,23.0904016 76.4862189,23.4464534 C77.0661607,23.8025053 77.6966385,23.9805285 78.3776711,23.9805285 C79.0480625,23.9805285 79.6705596,23.8025053 80.2451808,23.4464534 C80.8198021,23.0904016 81.2747038,22.6064008 81.6098995,21.9944367 C81.9450952,21.3824726 82.1126906,20.7093222 82.1126906,19.9749652 C82.1126906,19.2406083 81.9450952,18.5702395 81.6098995,17.9638387 C81.2747038,17.3574379 80.8198021,16.8790004 80.2451808,16.5285118 C79.6705596,16.1780233 79.0480625,16.0027816 78.3776711,16.0027816 Z M88.8431749,14.1502086 L91.285303,14.1502086 L94.9883993,21.6773296 L98.6595724,14.1502086 L101.101701,14.1502086 L101.101701,25.8331015 L99.1384211,25.8331015 L99.1384211,17.4547983 L95.6587875,24.6314325 L94.286088,24.6314325 L90.7904928,17.4547983 L90.7904928,25.8331015 L88.8431749,25.8331015 L88.8431749,14.1502086 Z M106.50737,14.1502086 L114.695682,14.1502086 L114.695682,16.1029207 L108.646228,16.1029207 L108.646228,18.9902643 L114.073179,18.9902643 L114.073179,20.9429764 L108.646228,20.9429764 L108.646228,23.8803894 L114.887222,23.8803894 L114.887222,25.8331015 L106.50737,25.8331015 L106.50737,14.1502086 Z M126.289141,14.1502086 L128.427998,14.1502086 L128.427998,19.1404729 L133.998604,19.1404729 L133.998604,14.1502086 L136.137462,14.1502086 L136.137462,25.8331015 L133.998604,25.8331015 L133.998604,21.093185 L128.427998,21.093185 L128.427998,25.8331015 L126.289141,25.8331015 L126.289141,14.1502086 Z M141.559093,14.1502086 L149.747405,14.1502086 L149.747405,16.1029207 L143.69795,16.1029207 L143.69795,18.9902643 L149.124902,18.9902643 L149.124902,20.9429764 L143.69795,20.9429764 L143.69795,23.8803894 L149.938945,23.8803894 L149.938945,25.8331015 L141.559093,25.8331015 L141.559093,14.1502086 Z M161.761186,25.8331015 L159.82983,22.3783032 C159.744701,22.3894298 159.611689,22.394993 159.430789,22.394993 L156.908853,22.394993 L156.908853,25.8331015 L154.769996,25.8331015 L154.769996,14.1502086 L159.430789,14.1502086 C160.877984,14.1502086 161.995286,14.5006919 162.78273,15.201669 C163.570174,15.9026461 163.96389,16.8929004 163.96389,18.1724618 C163.96389,19.0848446 163.775013,19.8636964 163.397253,20.5090403 C163.019492,21.1543843 162.468822,21.638385 161.745225,21.961057 L164.203314,25.8331015 L161.761186,25.8331015 Z M156.908853,20.4255911 L159.430789,20.4255911 C160.239516,20.4255911 160.856692,20.2420046 161.282338,19.8748261 C161.707983,19.5076477 161.920803,18.9624515 161.920803,18.2392211 C161.920803,17.5271174 161.707983,16.9930477 161.282338,16.6369958 C160.856692,16.280944 160.239516,16.1029207 159.430789,16.1029207 L156.908853,16.1029207 L156.908853,20.4255911 Z M174.046315,14 C175.152993,14 176.161225,14.2614717 177.071042,14.7844228 C177.980859,15.307374 178.696465,16.0250302 179.217881,16.9374131 C179.739296,17.8497959 180,18.8623032 180,19.9749652 C180,21.0876273 179.739296,22.1029161 179.217881,23.0208623 C178.696465,23.9388085 177.980859,24.6648096 177.071042,25.1988873 C176.161225,25.7329651 175.152993,26 174.046315,26 C172.939637,26 171.931405,25.7329651 171.021588,25.1988873 C170.111771,24.6648096 169.396165,23.9388085 168.874749,23.0208623 C168.353334,22.1029161 168.09263,21.0876273 168.09263,19.9749652 C168.09263,18.8623032 168.353334,17.8497959 168.874749,16.9374131 C169.396165,16.0250302 170.111771,15.307374 171.021588,14.7844228 C171.931405,14.2614717 172.939637,14 174.046315,14 Z M174.078238,16.0027816 C173.397206,16.0027816 172.764068,16.1780233 172.178805,16.5285118 C171.593543,16.8790004 171.13066,17.3574379 170.790144,17.9638387 C170.449628,18.5702395 170.279372,19.2406083 170.279372,19.9749652 C170.279372,20.7093222 170.452288,21.3824726 170.798125,21.9944367 C171.143962,22.6064008 171.606844,23.0904016 172.186786,23.4464534 C172.766728,23.8025053 173.397206,23.9805285 174.078238,23.9805285 C174.74863,23.9805285 175.371127,23.8025053 175.945748,23.4464534 C176.520369,23.0904016 176.975271,22.6064008 177.310467,21.9944367 C177.645662,21.3824726 177.813258,20.7093222 177.813258,19.9749652 C177.813258,19.2406083 177.645662,18.5702395 177.310467,17.9638387 C176.975271,17.3574379 176.520369,16.8790004 175.945748,16.5285118 C175.371127,16.1780233 174.74863,16.0027816 174.078238,16.0027816 Z" id="HOMEHERO" fill="#FFFFFF" fill-rule="nonzero"></path>
        <path d="M60.6512528,35.1896067 C60.3638895,35.0126396 60.0497994,34.8766391 59.7089732,34.7816011 C59.3681469,34.6865632 59.0473741,34.6390449 58.746645,34.6390449 C58.2654785,34.6390449 57.8795487,34.7324429 57.5888439,34.9192416 C57.2981392,35.1060403 57.152789,35.3600171 57.152789,35.6811798 C57.152789,35.9630164 57.2329822,36.1924148 57.393371,36.369382 C57.5537598,36.5463492 57.7509015,36.6856268 57.9848019,36.7872191 C58.2187022,36.8888114 58.5394751,37.001872 58.94713,37.1264045 C59.4216137,37.2640456 59.8042021,37.4000461 60.0949069,37.5344101 C60.3856116,37.6687741 60.632874,37.8637628 60.8367015,38.119382 C61.040529,38.3750013 61.1424412,38.7125447 61.1424412,39.1320225 C61.1424412,39.4990655 61.0371876,39.8235005 60.8266773,40.1053371 C60.6161669,40.3871737 60.3204544,40.6051022 59.939531,40.7591292 C59.5586075,40.9131562 59.1208862,40.9901685 58.626354,40.9901685 C58.1385046,40.9901685 57.6623574,40.895132 57.1978981,40.7050562 C56.7334388,40.5149803 56.3341434,40.262642 56,39.9480337 L56.3207761,39.3876404 C56.6348709,39.6891401 56.9990817,39.9250928 57.4134195,40.0955056 C57.8277573,40.2659185 58.2354062,40.3511236 58.6363782,40.3511236 C59.1710077,40.3511236 59.5953634,40.2446172 59.9094582,40.0316011 C60.223553,39.8185851 60.380598,39.531837 60.380598,39.1713483 C60.380598,38.8829574 60.3004048,38.6470047 60.140016,38.4634831 C59.9796272,38.2799616 59.7824855,38.1390454 59.5485851,38.0407303 C59.3146848,37.9424152 58.9872291,37.827716 58.5662085,37.6966292 C58.0917248,37.5524337 57.7108071,37.4164332 57.4234438,37.2886236 C57.1360804,37.160814 56.8921594,36.970741 56.6916734,36.7183989 C56.4911873,36.4660568 56.3909458,36.1367062 56.3909458,35.7303371 C56.3909458,35.3829571 56.4911873,35.0781848 56.6916734,34.8160112 C56.8921594,34.5538376 57.1728357,34.3522947 57.5337105,34.2113764 C57.8945854,34.0704581 58.3122584,34 58.786742,34 C59.1676655,34 59.5502539,34.0557111 59.9345188,34.1671348 C60.3187837,34.2785586 60.6579342,34.426029 60.9519804,34.6095506 L60.6512528,35.1896067 Z M64.5272972,34.0688202 L65.2189706,34.0688202 L65.2189706,37.2148876 L69.5995686,37.2148876 L69.5995686,34.0688202 L70.291242,34.0688202 L70.291242,40.9410112 L69.5995686,40.9410112 L69.5995686,37.8244382 L65.2189706,37.8244382 L65.2189706,40.9410112 L64.5272972,40.9410112 L64.5272972,34.0688202 Z M79.3999458,40.9410112 L78.5679329,39.1123596 L74.6785232,39.1123596 L73.8565346,40.9410112 L73.1147399,40.9410112 L76.2723793,34.0688202 L76.9941254,34.0688202 L80.1517647,40.9410112 L79.3999458,40.9410112 Z M74.949178,38.502809 L78.2972781,38.502809 L76.6132038,34.7865169 L74.949178,38.502809 Z M87.5964427,40.9410112 L86.0827807,38.6994382 C85.8689289,38.7125469 85.7052011,38.7191011 85.5915924,38.7191011 L83.666936,38.7191011 L83.666936,40.9410112 L82.9752626,40.9410112 L82.9752626,34.0688202 L85.5915924,34.0688202 C86.4670481,34.0688202 87.1436783,34.267086 87.6215034,34.6636236 C88.0993284,35.0601612 88.3382374,35.6221874 88.3382374,36.3497191 C88.3382374,36.9199467 88.1978992,37.3951292 87.9172188,37.7752809 C87.6365383,38.1554326 87.2355723,38.4208794 86.7143086,38.5716292 L88.3983829,40.9410112 L87.5964427,40.9410112 Z M85.5915924,38.1095506 C86.2598792,38.1095506 86.7744523,37.9604416 87.1353271,37.6622191 C87.496202,37.3639966 87.6766367,36.9330553 87.6766367,36.369382 C87.6766367,35.8188175 87.496202,35.399346 87.1353271,35.1109551 C86.7744523,34.8225641 86.2598792,34.6783708 85.5915924,34.6783708 L83.666936,34.6783708 L83.666936,38.1095506 L85.5915924,38.1095506 Z M91.8935057,34.0688202 L96.5848555,34.0688202 L96.5848555,34.6783708 L92.5851791,34.6783708 L92.5851791,37.136236 L96.163837,37.136236 L96.163837,37.7457865 L92.5851791,37.7457865 L92.5851791,40.3314607 L96.7151708,40.3314607 L96.7151708,40.9410112 L91.8935057,40.9410112 L91.8935057,34.0688202 Z M109.579628,34.0688202 L106.883104,38.4929775 L106.883104,40.9410112 L106.191431,40.9410112 L106.191431,38.4929775 L103.45481,34.0688202 L104.176556,34.0688202 L106.54228,37.7654494 L108.857882,34.0688202 L109.579628,34.0688202 Z M114.95931,34.0098315 C115.627597,34.0098315 116.240741,34.1654947 116.79876,34.4768258 C117.35678,34.788157 117.799513,35.209267 118.126974,35.7401685 C118.454434,36.2710701 118.618162,36.8543976 118.618162,37.4901685 C118.618162,38.1259395 118.454434,38.7125441 118.126974,39.25 C117.799513,39.7874559 117.35678,40.2134816 116.79876,40.5280899 C116.240741,40.8426982 115.627597,41 114.95931,41 C114.291023,41 113.677879,40.8426982 113.11986,40.5280899 C112.56184,40.2134816 112.119107,39.7874559 111.791647,39.25 C111.464186,38.7125441 111.300458,38.1259395 111.300458,37.4901685 C111.300458,36.8543976 111.464186,36.2710701 111.791647,35.7401685 C112.119107,35.209267 112.56184,34.788157 113.11986,34.4768258 C113.677879,34.1654947 114.291023,34.0098315 114.95931,34.0098315 Z M114.969334,34.619382 C114.434705,34.619382 113.94018,34.7471897 113.485745,35.002809 C113.03131,35.2584282 112.670441,35.605803 112.403126,36.0449438 C112.135811,36.4840846 112.002156,36.9658213 112.002156,37.4901685 C112.002156,38.0145157 112.135811,38.4995296 112.403126,38.9452247 C112.670441,39.3909198 113.03131,39.7432103 113.485745,40.0021067 C113.94018,40.2610032 114.434705,40.3904494 114.969334,40.3904494 C115.497281,40.3904494 115.986794,40.2610032 116.437887,40.0021067 C116.888981,39.7432103 117.24818,39.3909198 117.515494,38.9452247 C117.782809,38.4995296 117.916464,38.0145157 117.916464,37.4901685 C117.916464,36.9658213 117.782809,36.4840846 117.515494,36.0449438 C117.24818,35.605803 116.888981,35.2584282 116.437887,35.002809 C115.986794,34.7471897 115.497281,34.619382 114.969334,34.619382 Z M122.343843,38.1488764 C122.343843,38.8567451 122.539314,39.4073014 122.930261,39.8005618 C123.321209,40.1938222 123.864184,40.3904494 124.559202,40.3904494 C125.254221,40.3904494 125.795525,40.1938222 126.183131,39.8005618 C126.570737,39.4073014 126.764538,38.8567451 126.764538,38.1488764 L126.764538,34.0589888 L127.456211,34.0589888 L127.456211,38.1488764 C127.456211,39.0402666 127.200595,39.7382934 126.689356,40.2429775 C126.178116,40.7476617 125.468072,41 124.559202,41 C123.650332,41 122.938617,40.7476617 122.424037,40.2429775 C121.909456,39.7382934 121.652169,39.0402666 121.652169,38.1488764 L121.652169,34.0589888 L122.343843,34.0589888 L122.343843,38.1488764 Z M135.793047,40.9410112 L134.279385,38.6994382 C134.065534,38.7125469 133.901806,38.7191011 133.788197,38.7191011 L131.863541,38.7191011 L131.863541,40.9410112 L131.171867,40.9410112 L131.171867,34.0688202 L133.788197,34.0688202 C134.663653,34.0688202 135.340283,34.267086 135.818108,34.6636236 C136.295933,35.0601612 136.534842,35.6221874 136.534842,36.3497191 C136.534842,36.9199467 136.394504,37.3951292 136.113824,37.7752809 C135.833143,38.1554326 135.432177,38.4208794 134.910913,38.5716292 L136.594988,40.9410112 L135.793047,40.9410112 Z M133.788197,38.1095506 C134.456484,38.1095506 134.971057,37.9604416 135.331932,37.6622191 C135.692807,37.3639966 135.873241,36.9330553 135.873241,36.369382 C135.873241,35.8188175 135.692807,35.399346 135.331932,35.1109551 C134.971057,34.8225641 134.456484,34.6783708 133.788197,34.6783708 L131.863541,34.6783708 L131.863541,38.1095506 L133.788197,38.1095506 Z M144.517489,34.0688202 L145.209162,34.0688202 L145.209162,40.9410112 L144.517489,40.9410112 L144.517489,34.0688202 Z M151.902021,34.0688202 C152.570308,34.0688202 153.180111,34.2195678 153.731447,34.5210674 C154.282784,34.8225671 154.717164,35.2371228 155.0346,35.7647472 C155.352036,36.2923716 155.510752,36.8740605 155.510752,37.5098315 C155.510752,38.1456024 155.352036,38.7256528 155.0346,39.25 C154.717164,39.7743472 154.281113,40.1872644 153.726435,40.488764 C153.171757,40.7902637 152.556942,40.9410112 151.881973,40.9410112 L149.085206,40.9410112 L149.085206,34.0688202 L151.902021,34.0688202 Z M151.92207,40.3314607 C152.450016,40.3314607 152.934517,40.2069301 153.375586,39.9578652 C153.816655,39.7088003 154.16583,39.3696183 154.42312,38.940309 C154.680411,38.5109997 154.809054,38.0341787 154.809054,37.5098315 C154.809054,36.9854843 154.67874,36.5070246 154.418108,36.0744382 C154.157477,35.6418518 153.804961,35.3010312 153.36055,35.0519663 C152.916139,34.8029014 152.426626,34.6783708 151.891997,34.6783708 L149.77688,34.6783708 L149.77688,40.3314607 L151.92207,40.3314607 Z M158.705147,34.0688202 L163.396497,34.0688202 L163.396497,34.6783708 L159.39682,34.6783708 L159.39682,37.136236 L162.975478,37.136236 L162.975478,37.7457865 L159.39682,37.7457865 L159.39682,40.3314607 L163.526812,40.3314607 L163.526812,40.9410112 L158.705147,40.9410112 L158.705147,34.0688202 Z M172.124279,40.9410112 L171.292266,39.1123596 L167.402857,39.1123596 L166.580868,40.9410112 L165.839073,40.9410112 L168.996713,34.0688202 L169.718459,34.0688202 L172.876098,40.9410112 L172.124279,40.9410112 Z M167.673511,38.502809 L171.021611,38.502809 L169.337537,34.7865169 L167.673511,38.502809 Z M179.508812,35.1896067 C179.221448,35.0126396 178.907358,34.8766391 178.566532,34.7816011 C178.225706,34.6865632 177.904933,34.6390449 177.604204,34.6390449 C177.123037,34.6390449 176.737107,34.7324429 176.446403,34.9192416 C176.155698,35.1060403 176.010348,35.3600171 176.010348,35.6811798 C176.010348,35.9630164 176.090541,36.1924148 176.25093,36.369382 C176.411319,36.5463492 176.60846,36.6856268 176.842361,36.7872191 C177.076261,36.8888114 177.397034,37.001872 177.804689,37.1264045 C178.279172,37.2640456 178.661761,37.4000461 178.952466,37.5344101 C179.24317,37.6687741 179.490433,37.8637628 179.69426,38.119382 C179.898088,38.3750013 180,38.7125447 180,39.1320225 C180,39.4990655 179.894746,39.8235005 179.684236,40.1053371 C179.473726,40.3871737 179.178013,40.6051022 178.79709,40.7591292 C178.416166,40.9131562 177.978445,40.9901685 177.483913,40.9901685 C176.996063,40.9901685 176.519916,40.895132 176.055457,40.7050562 C175.590998,40.5149803 175.191702,40.262642 174.857559,39.9480337 L175.178335,39.3876404 C175.49243,39.6891401 175.856641,39.9250928 176.270978,40.0955056 C176.685316,40.2659185 177.092965,40.3511236 177.493937,40.3511236 C178.028566,40.3511236 178.452922,40.2446172 178.767017,40.0316011 C179.081112,39.8185851 179.238157,39.531837 179.238157,39.1713483 C179.238157,38.8829574 179.157964,38.6470047 178.997575,38.4634831 C178.837186,38.2799616 178.640044,38.1390454 178.406144,38.0407303 C178.172244,37.9424152 177.844788,37.827716 177.423767,37.6966292 C176.949284,37.5524337 176.568366,37.4164332 176.281003,37.2886236 C175.993639,37.160814 175.749718,36.970741 175.549232,36.7183989 C175.348746,36.4660568 175.248505,36.1367062 175.248505,35.7303371 C175.248505,35.3829571 175.348746,35.0781848 175.549232,34.8160112 C175.749718,34.5538376 176.030394,34.3522947 176.391269,34.2113764 C176.752144,34.0704581 177.169817,34 177.644301,34 C178.025224,34 178.407813,34.0557111 178.792078,34.1671348 C179.176343,34.2785586 179.515493,34.426029 179.809539,34.6095506 L179.508812,35.1896067 Z" id="SHAREYOURIDEAS" fill="#FFFFFF" fill-rule="nonzero" opacity="0.5"></path>
    </g>
</svg>